<?xml version="1.0" encoding="iso-8859-1"?>
<!-- Generator: Adobe Illustrator 18.1.1, SVG Export Plug-In . SVG Version: 6.00 Build 0)  -->
<svg version="1.1" id="Layer_1" xmlns="http://www.w3.org/2000/svg" xmlns:xlink="http://www.w3.org/1999/xlink" x="0px" y="0px"
	 viewBox="0 0 800 800" style="enable-background:new 0 0 800 800;" xml:space="preserve">
<g>
	<path style="fill:#302512;" d="M274,401c29.4,55.3,60.4,109.7,91.1,164.2c14.1,25,29.1,49.4,44.1,74.6c1.8-2.9,3.2-5.1,4.6-7.5
		c17.9-30.3,35.9-60.6,53.8-90.9c29.7-50.5,59.9-100.8,83.6-154.5c15.8-35.8,28.5-72.5,29.7-112.3c3-105.6-88-188.6-193-175.8
		c-97.2,12-165.1,104.3-148.2,201.2C246,335.5,257.2,369.4,274,401z M408.9,204.2c34.3-0.1,61.6,26.9,61.6,60.9
		s-27.3,61.5-61.2,61.5c-33.6,0-61.1-27.3-61.2-60.8C347.9,231.5,374.9,204.3,408.9,204.2z"/>
	<path style="fill:#302512;" d="M578,588.3c-17.2-16.8-38.7-26-61.1-33.1c-1.5-0.5-4.6,0.4-5.4,1.7c-7.7,12.3-15,24.9-22.7,37.9
		c8.7,2.7,16.9,4.3,24.4,7.7c10.5,4.7,21.1,9.5,30.3,16.2c9.1,6.6,9,15.9,0.1,23c-7.5,6-16.2,11.1-25.2,14.7
		c-28.3,11.5-58.2,16-88.4,17.6c-44.4,2.4-88.1-1.6-129.9-17.6c-9.4-3.6-18.3-9.4-26.2-15.8c-7.7-6.3-7.2-14.9,0.3-21.5
		c5-4.4,10.9-8.3,17-10.9c12.2-5.1,24.9-9.2,38.1-14c-7.4-12.5-14.8-25.3-22.6-37.8c-0.7-1.1-3.5-1.7-5-1.2
		c-23.9,7.7-46.7,17.5-64.4,36.3c-21.3,22.6-21.8,53-1.3,76.4c14.7,16.8,33.7,27,54.4,34.1c69.6,23.7,140.2,24.5,211.3,8
		c27.4-6.3,53.5-16.4,74.7-35.9C603.8,648.9,604.4,614.1,578,588.3z"/>
</g>
</svg>
