<?xml version="1.0" encoding="utf-8"?>
<!-- Generator: Adobe Illustrator 18.1.1, SVG Export Plug-In . SVG Version: 6.00 Build 0)  -->
<svg version="1.1" id="Layer_3" xmlns="http://www.w3.org/2000/svg" xmlns:xlink="http://www.w3.org/1999/xlink" x="0px" y="0px"
	 viewBox="0 0 64 64" enable-background="new 0 0 64 64" xml:space="preserve">
<g>
	<path fill="#FFFFFF" d="M43.3,29.9L43.3,29.9L43.3,29.9z"/>
	<path fill="#FFFFFF" d="M15.6,43C15.6,42.6,15.4,42.7,15.6,43L15.6,43z"/>
	<path fill="#FFFFFF" d="M14.7,43.6C14.7,43.3,14.7,43.6,14.7,43.6L14.7,43.6z"/>
	<path fill="#FFFFFF" d="M42.7,25.6L42.7,25.6L42.7,25.6z"/>
	<path fill="#FFFFFF" d="M45.8,30.4C45.8,30.4,45.8,30.4,45.8,30.4L45.8,30.4C45.8,30.4,45.8,30.4,45.8,30.4z"/>
	<path fill="#FFFFFF" d="M47.8,33.7L47.8,33.7L47.8,33.7z"/>
	<path fill="#FFFFFF" d="M46.2,35.4L46.2,35.4L46.2,35.4L46.2,35.4L46.2,35.4z"/>
	<path fill="#FFFFFF" d="M46.6,32.2L46.6,32.2L46.6,32.2L46.6,32.2z"/>
	<path fill="#FFFFFF" d="M48.8,40.5c0,0,0,0.1,0.1,0.1c-0.1-0.2-0.2-0.4-0.3-0.6C48.6,40.2,48.7,40.4,48.8,40.5z"/>
	<path fill="#FFFFFF" d="M45.9,30.6L45.9,30.6L45.9,30.6z"/>
	<path fill="#FFFFFF" d="M42.7,25.9C42.7,26,42.7,25.9,42.7,25.9L42.7,25.9z"/>
	<path fill="#FFFFFF" d="M45.7,36.8C45.7,36.9,45.7,36.9,45.7,36.8c0.1,0.1,0.1,0.1,0.1,0.1C45.7,36.9,45.7,36.9,45.7,36.8z"/>
	<path fill="#FFFFFF" d="M48.8,41.2C48.9,41.1,48.8,41.2,48.8,41.2L48.8,41.2z"/>
	<path fill="#FFFFFF" d="M63.4,50.8c-0.1-0.2-0.2-0.4-0.4-0.5c-0.2-0.3-0.4-0.6-0.6-0.9c-0.3-0.4-0.5-0.8-0.8-1.1
		c-0.3-0.5-0.6-0.9-0.9-1.4c-0.4-0.5-0.7-1.1-1.1-1.6c-0.4-0.6-0.8-1.2-1.2-1.8c-0.4-0.6-0.8-1.2-1.3-1.9c-0.4-0.7-0.9-1.3-1.3-2
		c-0.4-0.7-0.9-1.3-1.4-2c-0.5-0.7-0.9-1.3-1.4-2c-0.4-0.7-0.9-1.3-1.3-2c-0.4-0.6-0.9-1.3-1.3-1.9c-0.4-0.6-0.8-1.2-1.2-1.8
		c-0.4-0.6-0.8-1.1-1.1-1.7c-0.3-0.5-0.7-1-1-1.5c-0.3-0.4-0.6-0.8-0.8-1.3c-0.2-0.3-0.4-0.7-0.7-1c-0.2-0.2-0.3-0.5-0.5-0.7
		c-0.1-0.1-0.2-0.2-0.2-0.4c0,0,0,0,0,0c-0.2-0.5-0.4-1.1-0.7-1.6c0-0.1,0.1-0.1,0.1-0.2c0.2-0.4,0.3-0.7,0.5-1.1
		c0.2-0.5,0.5-1,0.6-1.5c0.1-0.4,0.2-0.8,0.3-1.2c0.1-0.5,0.2-1,0.3-1.4c0-0.1,0.2-0.1,0.2-0.2c0-0.1,0-0.2,0.1-0.2
		c0.4,0,0.4-0.5,0.4-0.8c0-0.8,0.1-1.5,0.2-2.3c0-0.2,0.2-0.3,0.3-0.5c0.1,0.1,0.2,0.2,0.2,0.3c0.2,0.6,0.3,1.2,0.4,1.8
		c0,0.1,0,0.3,0.1,0.5c0.1,0.3,0.2,0.6,0.2,0.9c0.1,1.7-0.1,3.4,0.2,5.1c0.2,0.8,0,1.7,0.3,2.6c0.2,0.7,0.2,1.5,0.3,2.2
		c0.1,0.4,0.2,0.7,0.3,1.1c0.1,0.3,0.1,0.6,0.3,0.8c0.3,0.4,0.4,0.9,0.6,1.3c0.1,0.2,0.2,0.5,0.4,0.7c0.1,0,0.1-0.1,0.2-0.1
		c-0.1-0.3-0.2-0.5-0.3-0.8c-0.1-0.4-0.2-0.8-0.3-1.2c-0.1-0.3-0.2-0.5-0.3-0.8c-0.1-0.4-0.3-0.8-0.4-1.2c-0.1-0.4,0-0.8-0.1-1.2
		c-0.3-0.9-0.1-1.8-0.2-2.7c0.3-0.1,0.4,0,0.4,0.4c0,0.2,0,0.3,0.1,0.5c0.1,0.4,0.3,0.8,0.4,1.3c0.2,0.6,0.1,1.5,0.7,1.8
		c0,0,0,0,0,0c0.2,0.4,0.5,0.8,0.7,1.2c0.1,0.1,0.2,0.2,0.2,0.3c0.1,0.3,0.2,0.7,0.3,1.1c0,0.1,0.1,0.3,0.2,0.4
		c0.2,0.4,0.6,0.7,0.7,1.1c0.2,0.7,0.6,1,0.9,1.5c0.1,0.2,0.2,0.4,0.3,0.6c0.1,0.3,0.2,0.6,0.3,0.9c0.1,0.3,0.3,0.6,0.5,0.9
		c0.1,0.2,0.2,0.3,0.3,0.5c0.1,0.2,0.3,0.4,0.4,0.6c0.1,0.3,0.3,0.5,0.4,0.8c0.2,0.5,0.4,0.9,0.5,1.4c0.1,0.4,0.3,0.5,0.5,0.8
		c0.1,0.1,0.2,0.3,0.3,0.5c0.1,0.2,0.1,0.4,0.1,0.5c0.3,0,0.6-0.1,0.8-0.1c0,0,0,0.1,0.1,0.2c0.1,0.2,0.2,0.4,0.4,0.4
		c0.3,0.2,0.6,0.2,0.6,0.8c0,0.1,0.1,0.1,0.1,0.2c0.2,0.3,0.4,0.7,0.6,0.9c0.2,0.2,0.3,0.7,0.6,0.2c-0.1-0.2-0.3-0.5-0.4-0.7
		c-0.1-0.8-0.2-1.7-0.3-2.6c0-0.2,0-0.5-0.1-0.6c-0.3-0.4,0.1-0.5,0.1-0.7c0.2,0,0.4-0.1,0.5,0.2c0.1,0.2,0.2,0.5,0.3,0.6
		c0.3,0.3,0.4,0.9,0.6,1.3c0.1,0.1,0.1,0.3,0.2,0.4c0-0.2,0.1-0.4,0.1-0.5c0-0.1-0.1-0.2-0.1-0.3c-0.1-0.3-0.2-0.5-0.3-0.8
		c-0.2-0.4-0.3-0.8-0.5-1.2c-0.1-0.2-0.2-0.3-0.2-0.5c-0.2-0.4-0.3-0.9-0.5-1.4c-0.3-0.6-0.6-1.3-0.9-1.9c-0.3-0.6-0.6-1.3-1.1-1.7
		c-0.2-0.2-0.4-0.4-0.6-0.6c-0.1-0.1-0.1-0.4-0.2-0.6c-0.2-0.4-0.3-0.8-0.5-1.2c-0.2-0.3-0.2-0.8-0.4-1.1c-0.2-0.3-0.5-0.6-0.5-1.1
		c0-0.3-0.3-0.5-0.4-0.8c-0.2-0.2-0.3-0.5-0.5-0.7c-0.3-0.4-0.6-0.8-0.9-1.2c-0.1-0.2-0.3-0.4-0.4-0.7c0-0.4-0.2-0.7-0.3-1.1
		c-0.1-0.2-0.2-0.5-0.3-0.7c-0.2-0.4-0.4-0.7-0.6-1c-0.2-0.3-0.4-0.6-0.6-0.9c-0.7-0.7-1.2-1.5-1.6-2.6c-0.5-0.2-0.6-0.3-0.6-0.9
		c0-0.1-0.1-0.2-0.1-0.4c-0.3-0.6-0.8-1.2-0.9-2c0-0.3-0.1-0.7-0.2-0.9c-0.2-0.4-0.4-0.3-0.6-1.4c-0.1,0-0.3,0-0.5,0
		c-0.1,1-0.2,0.5-0.3,0.7c-0.2,0.4-0.4,0.8-0.6,1.2c-0.1,0.2-0.2,0.5-0.3,0.7c-0.2,0.4-0.5,0.6-0.7,0.9c-0.4,0.3-0.7,0.3-1-0.1
		c0,0-0.1-0.1-0.1-0.1c-0.2-0.1-0.3-0.1-0.5-0.2c-0.1,0.1-0.2,0.3-0.3,0.4c-0.2,0.4-0.4,0.9-0.7,1.3c-0.2,0.4-0.7,0.9-1,1.1
		c0,0,0,0-0.1,0c-0.1-0.3-0.1-0.5-0.2-0.8c-0.1-0.4-0.1-0.8-0.2-1.1c-0.1-0.3-0.2-0.7-0.3-1c-0.2-0.3-0.4-0.7-0.6-1
		c-0.2-0.3-0.4-0.7-0.6-1c-0.1-0.1-0.2-0.3-0.3-0.4c-0.1-0.1-0.2-0.2-0.3-0.3c-0.2-0.4-0.3-0.8-0.4-1.3c-0.1-0.2-0.1-0.3-0.2-0.5
		c0-0.1-0.1-0.2-0.1-0.3c-0.1-0.2-0.1-0.3-0.2-0.5c-0.1-0.3-0.3-0.6-0.5-0.9C37.4,7.6,37.3,7.3,37,7c-0.1-0.1-0.2-0.1-0.3-0.1
		c-0.1,0-0.3,0.1-0.4,0.1c-0.1,0.1-0.2,0.2-0.2,0.3C36,7.4,36,7.6,35.9,7.7c-0.1,0.3-0.2,0.7-0.4,1c-0.1,0.3-0.3,0.6-0.5,0.9
		c-0.2,0.3-0.4,0.6-0.6,0.9c-0.2,0.3-0.3,0.7-0.4,1c-0.2,0.3-0.3,0.6-0.5,1c0,0,0,0.1-0.1,0.1c0,0,0,0,0,0c0,0,0,0,0,0
		c-0.1,0-0.1,0-0.2,0c-0.1,0-0.2,0-0.3,0.1c-0.3,0.2-0.4,0.5-0.5,0.8c-0.1,0.3-0.3,0.7-0.4,1c-0.1,0.2-0.2,0.3-0.2,0.4
		c-0.1,0.2-0.2,0.3-0.2,0.5c0,0.1-0.1,0.3-0.1,0.4c0,0.2-0.1,0.4-0.1,0.5c0,0.2-0.1,0.3-0.2,0.5c-0.1,0.2-0.2,0.3-0.2,0.5
		c-0.2,0.3-0.4,0.7-0.6,1c-0.2,0.3-0.3,0.5-0.6,0.8c-0.1,0.1-0.2,0.2-0.3,0.2c-0.1,0-0.3,0-0.4-0.1c0,0,0,0,0,0c0,0,0,0,0,0
		c0,0,0-0.1,0-0.1c0-0.1,0-0.1,0-0.2c0-0.1-0.1-0.2-0.1-0.2c0,0-0.1,0-0.1,0c0,0,0,0-0.1,0c0,0-0.1,0.1-0.1,0.1
		c-0.1,0.2-0.2,0.3-0.3,0.5c-0.1,0.1-0.2,0.3-0.3,0.4c0,0.1-0.1,0.1-0.1,0.2c0,0-0.1,0.1-0.1,0.1c-0.2,0-0.2-0.1-0.3-0.2
		c-0.1-0.2-0.2-0.3-0.2-0.5c-0.2-0.3-0.3-0.7-0.5-1c-0.2-0.3-0.4-0.5-0.5-0.8c0-0.1-0.1-0.3-0.2-0.3c-0.1,0-0.2,0-0.2,0
		c0,0-0.1,0-0.1,0c0,0-0.1,0-0.1,0c0,0-0.1,0-0.1,0c0,0,0,0.1,0,0.1c0,0,0,0.1,0,0.1c0,0.1-0.1,0.2-0.1,0.2c-0.1,0.3-0.2,0.6-0.3,1
		c-0.1-0.1-0.3-0.2-0.4-0.3c-0.1-0.1-0.2-0.3-0.3-0.5c-0.2-0.3-0.4-0.6-0.6-0.9c-0.5-0.6-0.9-1.3-1.3-2c-0.2-0.4-0.4-0.7-0.6-1.1
		c-0.2-0.3-0.3-0.7-0.5-1c-0.1-0.2-0.2-0.3-0.3-0.5c0-0.1-0.1-0.1-0.1-0.2c-0.1-0.2-0.1-0.4-0.2-0.6c-0.1-0.2-0.1-0.4-0.3-0.5
		c0,0-0.1,0-0.1,0c0,0-0.1,0-0.1,0c0,0-0.1,0-0.1,0c0,0-0.1,0-0.1,0c0,0,0,0,0,0c-0.1,0-0.3-0.1-0.4,0c-0.1,0-0.2,0.2-0.3,0.3
		c-0.1,0.1-0.2,0.3-0.3,0.4c-0.2,0.3-0.3,0.6-0.5,0.8c-0.1,0.1-0.2,0.3-0.2,0.4c-0.1,0.1-0.1,0.3-0.1,0.4c-0.1,0.3-0.3,0.6-0.4,0.9
		c-0.1,0.3-0.3,0.6-0.4,0.9c-0.1,0.3-0.3,0.6-0.4,0.9c-0.1,0.3-0.2,0.6-0.4,0.9c-0.3,0.6-0.6,1.2-0.9,1.8c-0.3,0.5-0.6,1-0.8,1.5
		c-0.1,0.3-0.2,0.5-0.3,0.8c0,0.1-0.1,0.3-0.1,0.4c0,0.2,0,0.3,0,0.5c-0.1,0.7-0.4,1.3-0.5,2c0,0.2-0.1,0.5-0.3,0.7
		c-0.1,0.1-0.3,0.2-0.5,0.1c-0.2-0.1-0.4,0-0.6,0.2c-0.2,0.2-0.3,0.4-0.4,0.6c-0.1,0.3-0.1,0.6-0.2,0.9c-0.1,0.3-0.2,0.6-0.3,1
		c-0.1,0.3-0.3,0.6-0.4,0.9s-0.1,0.6-0.2,0.9c-0.1,0.3-0.2,0.6-0.3,0.9c-0.1,0.3-0.3,0.6-0.4,0.9c-0.2,0.6-0.4,1.2-0.7,1.8
		c-0.1,0.3-0.2,0.6-0.4,0.9c-0.1,0.3-0.3,0.5-0.5,0.8c-0.4,0.5-0.8,1-1.3,1.6c-0.4,0.5-0.8,1.1-1.3,1.6c-0.2,0.3-0.4,0.5-0.6,0.8
		c-0.2,0.2-0.4,0.5-0.6,0.7c-0.4,0.5-0.8,1.1-1.1,1.6c-0.1,0.3-0.2,0.5-0.3,0.8c-0.1,0.1-0.1,0.3-0.2,0.4c-0.1,0.1-0.2,0.2-0.2,0.3
		c-0.1,0.2-0.1,0.5-0.1,0.7c0.1-0.1,0.2-0.1,0.2-0.2c0.1-0.1,0.1-0.2,0.1-0.3c0.1-0.2,0.1-0.4,0.2-0.6c0.3-0.4,0.5-0.8,0.8-1.2
		C4.9,40.3,5,40,5.2,39.8c0.1-0.2,0.3-0.4,0.4-0.6c0.3-0.3,0.6-0.7,1-0.5c0.1,0,0.1,0,0.2,0c0,0,0.1,0,0.1,0c0,0,0-0.1,0-0.1
		c0-0.1,0.1-0.2,0.1-0.4c0,0,0-0.2,0-0.2c0,0,0.1,0,0.1,0c0,0,0.1,0,0.1,0c0.1,0,0.1,0,0.2,0c0,0,0,0,0,0c0,0,0,0,0,0.1
		c0,0,0,0.1,0,0.1c0.1,0.3,0.2,0.5,0.3,0.8c0.1,0.2,0.2,0.5,0.3,0.7c0.1,0.2,0.1,0.5,0.1,0.7c0,0.2-0.1,0.4-0.2,0.7
		c-0.1,0.2-0.2,0.4-0.2,0.7c0,0.2,0,0.4-0.1,0.5c-0.1,0.1-0.2,0.2-0.4,0.2c0,0,0,0,0,0c0,0,0,0.1,0,0.1c0,0,0,0.1,0,0.1
		c0,0.1,0,0.1,0,0.2c0,0.1-0.1,0.2-0.1,0.2C7,43,7,43,7,43c0,0-0.1,0-0.1,0c0,0,0,0,0,0c0,0,0,0-0.1,0c-0.1-0.1-0.1-0.2-0.2-0.3
		c0,0.1-0.1,0.1-0.1,0.2c0,0.1,0,0.2,0,0.2c0,0.2-0.1,0.3-0.1,0.5c-0.1,0.3-0.1,0.6-0.2,1c0,0.1,0,0.1,0,0.2c0,0.1,0,0-0.1,0
		c0,0-0.1,0-0.1,0c-0.1,0-0.3,0-0.4,0c-0.2,0-0.3,0.3-0.4,0.4c-0.1,0.2-0.1,0.4-0.3,0.6c-0.1,0.1-0.3,0.2-0.4,0.4
		c-0.1,0.1-0.1,0.1-0.2,0.2c0,0,0,0.1-0.1,0.2c0,0.1,0,0.1,0,0.2c0,0.1-0.1,0.1-0.1,0.2c0,0.1-0.1,0.1-0.1,0.2
		c-0.1,0.1-0.2,0.3-0.3,0.4c-0.1,0.2-0.2,0.3-0.3,0.5s-0.1,0.3-0.2,0.5c-0.1,0.3-0.2,0.7-0.3,1c-0.1-0.1-0.3-0.3-0.4-0.4
		c0,0.3-0.1,0.6-0.1,0.9c-0.1,0.3-0.2,0.6-0.2,0.9c-0.1,0.3-0.2,0.6-0.3,0.9c0,0.1,0,0.3,0,0.4c0,0.1,0.1,0.2,0.2,0.1
		c0.1,0,0.2-0.2,0.2-0.3c0.1-0.1,0.1-0.2,0.2-0.4c0.1-0.2,0.3-0.4,0.5-0.6c0.2-0.2,0.4-0.3,0.6-0.4c0.1-0.1,0.2-0.1,0.3-0.2
		c0,0,0,0,0.1,0c0,0,0,0,0.1-0.1c0-0.1,0-0.2,0-0.2c0-0.2,0-0.4,0-0.5c0-0.1,0-0.2,0-0.3c0.1-0.2,0.3-0.1,0.4,0
		c-0.1,0.1-0.2,0.2-0.2,0.4c0,0.2,0,0.3,0,0.5c0.1-0.1,0.2-0.1,0.2-0.2c0.1-0.1,0.1-0.2,0.1-0.3c0.1-0.2,0.2-0.4,0.3-0.7
		c0.2,0.1,0.4,0.2,0.6,0.3c0.2-0.4,0.4-0.7,0.5-1.1c0-0.1,0.1-0.2,0.1-0.3c0,0,0-0.1,0.1-0.1c0,0,0-0.1,0.1-0.2c0,0,0.1,0,0.1,0
		c0,0,0.1,0,0.1,0c0,0,0.1,0,0.1,0c0,0,0-0.1,0-0.2c0.1-0.4,0.1-0.8,0.3-1.2c0.1-0.2,0.2-0.3,0.2-0.5c0.1-0.2,0.1-0.4,0.1-0.6
		c0.1-0.4,0.3-0.8,0.4-1.3c0.1-0.4,0.2-0.8,0.4-1.3c0.1-0.4,0.3-0.8,0.4-1.2s0.3-0.8,0.3-1.2c0-0.2,0-0.4,0.1-0.6
		C9,39.6,9,39.4,9.1,39.2c0.1-0.4,0.3-0.8,0.4-1.3c0.1-0.4,0.2-0.8,0.4-1.3c0.1-0.4,0.2-0.9,0.3-1.3c0.1-0.4,0.2-0.9,0.3-1.3
		c0.1-0.4,0.2-0.8,0.3-1.3c0.1-0.4,0.2-0.7,0.3-1.1c0-0.1,0-0.2,0-0.3c0-0.1,0-0.2,0-0.2c0.1-0.1,0.1-0.2,0.1-0.2
		c0-0.1,0.1-0.2,0.1-0.3c0.1-0.4,0.2-0.8,0.3-1.2c0-0.2,0-0.4,0.1-0.6c0-0.2,0.2-0.4,0.3-0.5c0.2-0.3,0.2-0.7,0.3-1
		c0.1-0.4,0.3-0.7,0.5-1c0.1-0.2,0.2-0.3,0.3-0.5c0,0,0,0,0.1,0.1c0,0,0,0,0,0.1c0,0.1,0,0.1,0,0.2c0,0.1,0,0.2-0.1,0.4
		c0,0.2-0.1,0.5-0.1,0.7c-0.1,0.4-0.2,0.9-0.4,1.3c-0.1,0.4-0.2,0.9-0.2,1.3c0,0.1,0,0.2,0,0.3c0,0.1,0,0.2-0.1,0.4
		c-0.1,0.2-0.1,0.4-0.2,0.6c-0.1,0.4-0.1,0.8,0.2,1.2c0.1-0.6,0.2-1.2,0.3-1.7c0-0.2,0-0.3,0.1-0.4c0-0.1,0-0.3,0.1-0.4
		c0.1-0.3,0.2-0.5,0.3-0.8c0.2-0.6,0.4-1.1,0.6-1.7c0.2-0.6,0.3-1.2,0.5-1.7c0.1-0.3,0.1-0.6,0.2-0.9c0.1-0.3,0.1-0.6,0.2-0.9
		c0.1-0.3,0.2-0.5,0.3-0.8c0.1-0.2,0.2-0.5,0.3-0.8c0.1-0.5,0.3-1,0.5-1.5c0.1-0.2,0.2-0.5,0.3-0.7c0.1-0.1,0.2-0.3,0.3-0.3
		c0.1,0,0.1,0,0.2,0.1c0,0,0,0,0,0c0,0,0,0.1,0,0.1c0,0.1,0,0.1,0,0.2c0,0.3,0,0.6,0,0.8c0,0.3-0.1,0.6-0.2,0.9
		c-0.1,0.3-0.1,0.6-0.2,0.8c-0.1,0.3-0.1,0.6-0.2,0.9c-0.1,0.3-0.1,0.6-0.2,0.8c-0.1,0.5-0.2,1.1-0.3,1.6c-0.1,0.5-0.3,0.9-0.6,1.2
		c-0.3,0.4-0.6,0.7-0.8,1.1c-0.1,0.2-0.2,0.4-0.2,0.7c-0.1,0.3-0.1,0.5-0.2,0.8c-0.2,0.6-0.4,1.1-0.5,1.7c-0.1,0.3-0.1,0.6-0.2,0.9
		c0,0.1-0.1,0.3-0.1,0.4c0,0.1-0.1,0.3-0.1,0.4c-0.2,0.6-0.3,1.2-0.5,1.8c-0.1,0.3-0.1,0.6-0.2,0.9c-0.1,0.3-0.1,0.5-0.2,0.8
		c-0.1,0.2-0.2,0.5-0.3,0.7c-0.1,0.2-0.2,0.5-0.3,0.7c0,0.1,0,0.1,0,0.2c0,0.1,0,0.1,0,0.2s-0.1,0.1-0.2,0.1c0-0.2,0-0.4,0-0.6
		c0-0.1,0-0.2,0-0.3c0-0.1,0.1-0.2,0.1-0.3c0.1-0.4,0.2-0.8,0.3-1.2c0.1-0.4,0.2-0.8,0.3-1.2c0-0.2,0.1-0.4,0.1-0.6
		c0-0.1,0-0.2,0-0.3c0-0.1,0-0.2,0-0.3c0-0.1,0.1-0.2,0.1-0.3c0-0.1,0.1-0.2,0.1-0.3c0-0.2,0-0.5-0.1-0.7c-0.1,0.2-0.1,0.5-0.1,0.8
		c0,0.3-0.1,0.5-0.2,0.8c-0.2,0.5-0.3,1-0.4,1.6c-0.1,0.5-0.2,1.1-0.2,1.6c0,0.3-0.1,0.5-0.2,0.8c-0.1,0.3-0.2,0.5-0.2,0.8
		c-0.1,0.5-0.2,1.1-0.4,1.6c-0.1,0.5-0.3,1-0.5,1.5c-0.4,1-0.6,2-1,3c-0.2,0.5-0.4,1-0.6,1.5c-0.2,0.5-0.4,1-0.5,1.5
		c0,0.1,0,0.2,0,0.4c0.1,0,0.1,0,0.2-0.1c0.1,0,0.1-0.1,0.2-0.2C8,47.7,8,47.6,8.1,47.6c0-0.1,0.1-0.2,0.1-0.3
		c0.2-0.4,0.3-0.7,0.5-1.1c0.2-0.4,0.3-0.7,0.4-1.1c0.1-0.4,0.3-0.7,0.4-1.1c0.1-0.3,0.3-0.7,0.5-1c0.2-0.3,0.3-0.7,0.4-1.1
		c0.2-0.7,0.4-1.5,0.7-2.2c0.1-0.4,0.2-0.7,0.4-1.1c0.1-0.4,0.3-0.7,0.4-1.1s0.2-0.7,0.4-1.1c0.1-0.4,0.3-0.7,0.4-1.1
		c0.3-0.7,0.5-1.4,0.8-2.2c0.1-0.4,0.2-0.7,0.3-1.1c0.1-0.4,0.2-0.8,0.2-1.1c0.1-0.4,0.2-0.8,0.2-1.1c0.1-0.3,0.2-0.7,0.3-1
		c0.2-0.3,0.4-0.7,0.6-1c0.2-0.3,0.4-0.6,0.6-0.9c0.1-0.1,0.2-0.3,0.3-0.4c0,0.2,0.1,0.5,0.1,0.7c0,0,0,0.1,0,0.1c0,0,0.1,0,0.1,0
		c0,0,0,0,0,0c0,0,0,0,0,0c0,0,0-0.1,0-0.1c0-0.2,0.1-0.3,0.1-0.5c0.1-0.3,0.1-0.6,0.2-0.9c0-0.2,0.1-0.3,0.1-0.5c0-0.1,0-0.3,0-0.4
		c0-0.3,0.1-0.6,0.2-0.9c0.1-0.3,0.2-0.6,0.2-0.9c0.1-0.6,0.2-1.2,0.2-1.8c0-0.2,0-0.3,0-0.5c0-0.1,0-0.3,0.1-0.4
		c0.1-0.3,0.2-0.6,0.2-0.8c0.1-0.6,0.2-1.2,0.3-1.8c0-0.6-0.1-1.1,0-1.7c0-0.1,0.1-0.3,0.1-0.4c0-0.1,0.1-0.3,0.2-0.4
		c0.1-0.3,0.2-0.5,0.3-0.8c0.1-0.3,0.2-0.5,0.3-0.8s0.3-0.5,0.4-0.7c0.3-0.4,0.4-1,0.9-1.2c0.1-0.1,0.2-0.1,0.3-0.1
		c0,0.2,0.1,0.5,0.2,0.7c0,0.1,0,0.2,0.1,0.3c0,0.1,0.1,0.2,0.1,0.3c0,0.1,0,0.2,0,0.4c0,0.1,0,0.3,0,0.4c0,0.3,0,0.5,0,0.8
		c0,1.1,0,2.2,0,3.3c0,0.3,0,0.5,0,0.8c0,0.2,0,0.4-0.1,0.7c0,0.1-0.1,0.2-0.1,0.3c0,0.1-0.1,0.2-0.2,0.3c-0.1,0.2-0.2,0.4-0.2,0.6
		c-0.1,0.5-0.2,1-0.4,1.5c-0.2,0.5-0.4,1-0.5,1.5c-0.1,0.4-0.1,0.9-0.3,1.3c0,0.1-0.1,0.2-0.2,0.3c0,0.1-0.1,0.2-0.1,0.3
		c0,0.2,0,0.5,0,0.7c0,0.1,0,0.2,0,0.4c0,0,0.1-0.1,0.2-0.1c0-0.1,0.1-0.1,0.1-0.2c0-0.2,0.1-0.4,0.1-0.6c0-0.2,0.1-0.4,0.1-0.6
		c0,0,0.1-0.5,0.1-0.5c0,0,0,0.1,0,0.1c0,0,0.1,0,0.1,0c0.1,0.6,0.1,1.2,0.1,1.8c0,0.3,0,0.6,0,0.9c0,0.2,0,0.3,0,0.5
		c0,0.1,0,0.2,0,0.2c0,0,0,0.1,0,0.1c0,0,0,0,0,0c0,0,0.1,0,0.1,0c0.1,0,0.1,0,0.1-0.1c0-0.1,0-0.2,0-0.2c0-0.2,0-0.4,0-0.5
		c0-0.6,0-1.2,0-1.8c0-0.3,0-0.5,0-0.8c0-0.3,0-0.6,0.1-0.8c0.1-0.2,0.2-0.4,0.3-0.7c0.1-0.2,0.1-0.5,0.1-0.7
		c0.1-0.6,0.3-1.1,0.5-1.7c0.1-0.3,0.1-0.6,0.2-0.9c0.1-0.3,0.1-0.6,0.2-0.9c0.1-0.3,0.2-0.6,0.2-0.9c0-0.3,0-0.6,0.1-0.9
		c0-0.3,0-0.6,0.1-0.9c0-0.3,0.1-0.6,0.2-0.9c0-0.1,0-0.1,0-0.2c0-0.1,0,0,0.1,0c0,0,0,0,0.1,0c0,0,0,0,0,0c0.1,0.2,0.1,0.3,0.2,0.4
		c0.1,0.3,0.2,0.6,0.3,0.9c0.2,0.6,0.3,1.1,0.4,1.7c0.1,0.6,0,1.2,0,1.8c0,0.6-0.1,1.2-0.1,1.9c-0.1,0.6-0.2,1.2-0.3,1.8
		c0,0.3-0.1,0.6-0.1,0.9s-0.1,0.6-0.2,0.9c-0.1,0.3-0.2,0.6-0.2,0.9s-0.1,0.6-0.1,0.9c0,0.3-0.1,0.6-0.1,1c0,0.3-0.1,0.6-0.2,0.9
		c-0.1,0.3-0.3,0.5-0.4,0.7c-0.1,0.2-0.2,0.4-0.3,0.7c-0.1,0.3-0.1,0.5-0.1,0.8c0,0.3-0.1,0.6-0.2,0.9c-0.1,0.3-0.2,0.6-0.3,0.9
		c0-0.4-0.1-0.9-0.1-1.3c0,0,0-0.1,0-0.1c0,0-0.1,0-0.1,0c0,0-0.1,0-0.1,0c0,0,0,0.1,0,0.1c0,0.1,0,0.2,0,0.3c0,0.1,0,0.2,0,0.3
		c0,0.1,0,0.1,0,0.2c0,0,0,0.1,0,0.1c0,0,0,0,0,0c0,0,0,0,0,0c0,0,0,0-0.1,0c0,0,0,0-0.1,0c0,0,0-0.1,0-0.2c0-0.1,0-0.2,0-0.3
		c0-0.2,0-0.4,0-0.7c0-0.4,0-0.9,0-1.3c0-0.5,0-1,0-1.5c0,0-0.1,0-0.1,0c0,0-0.1,0-0.1,0c0,0,0,0.2,0,0.2c0,0.2,0,0.3,0,0.5
		c0,0.3,0,0.6,0,0.9c0,0.6,0,1.2-0.1,1.8c0,0,0,0,0,0.1c0,0,0,0,0,0c0,0-0.1,0-0.1,0c0,0,0-0.1,0-0.2c0-0.1-0.1-0.3-0.1-0.4
		c-0.1,0.1-0.2,0.3-0.3,0.2c-0.1-0.1-0.2-0.3-0.2-0.4c0,0-0.1,0.1-0.1,0.1c0,0,0,0.1,0,0.1c0,0.2,0,0.3-0.1,0.4
		c0,0.3-0.1,0.6-0.1,0.9c0,0.3-0.1,0.6-0.1,0.9c0,0.2-0.1,0.4-0.2,0.5c-0.2,0.1-0.3,0-0.5-0.1c0,0.1-0.1,0.2-0.1,0.3
		c0,0,0,0.1-0.1,0.1c0,0.1-0.1,0-0.1,0c0-0.3,0-0.5,0-0.8c0-0.3,0.1-0.5,0.1-0.8s0.1-0.5,0.2-0.7c0-0.1,0.1-0.2,0.1-0.3
		c0-0.1,0.1-0.2,0.1-0.3c0.1-0.4,0.1-0.8,0.2-1.2c0-0.1,0.1-0.2,0.2-0.2c0.1-0.1,0-0.2,0.1-0.3c0.1-0.3,0.1-0.5,0.2-0.8
		c0.1-0.3,0.2-0.6,0.2-0.9c0.1-0.3,0.1-0.6,0.1-0.9c-0.1,0-0.1,0.1-0.2,0.1c-0.1,0.1-0.1,0.2-0.1,0.3c-0.1,0.2-0.1,0.4-0.2,0.6
		c-0.1,0.4-0.2,0.8-0.4,1.2c-0.1,0.4-0.3,0.8-0.4,1.2c-0.1,0.2-0.1,0.4-0.1,0.6c0,0.1,0,0.2,0,0.3c0,0.1-0.1,0.2-0.1,0.3
		c-0.2,0.4-0.4,0.8-0.4,1.2c-0.1,0.4-0.1,0.9-0.1,1.3c-0.1,0.4-0.2,0.8-0.4,1.2C16,36,16,36.2,15.9,36.4c-0.1,0.2-0.1,0.4-0.2,0.5
		c-0.1,0.1-0.2,0.2-0.2,0.3c-0.1,0.1-0.1,0.2-0.1,0.3c0,0,0,0.2,0,0.2c0,0,0,0,0,0c0,0-0.1,0-0.1,0c0,0-0.1,0-0.1,0
		c-0.1,0-0.1-0.1-0.1-0.2c-0.3,0.3-0.4,0.7-0.5,1.1c-0.1,0.4-0.2,0.9-0.3,1.3c-0.1-0.1-0.3-0.1-0.4-0.2c0,0.3,0,0.6-0.1,0.8
		c0,0.1,0,0.3,0,0.4c0,0,0,0.2,0,0.2c0,0-0.1,0.1-0.1,0.1c-0.1-0.2-0.2-0.3-0.4-0.4c0,0,0,0,0,0c-0.1,0-0.1,0-0.2,0
		c-0.1,0-0.1,0.1-0.1,0.1c-0.1,0.2-0.1,0.3-0.2,0.5c0,0.2-0.1,0.3-0.1,0.5c0,0.1,0,0.3-0.1,0.4c0,0.1-0.1,0.3-0.2,0.4
		c-0.1,0.1-0.1,0.1-0.2,0.2c-0.1,0.2-0.2,0.4-0.3,0.6c-0.1,0.1-0.1,0.2-0.2,0.2c-0.1,0-0.2,0-0.2,0.1c-0.1,0.1-0.1,0.3-0.2,0.4
		c-0.1,0.2-0.2,0.3-0.3,0.5c-0.1,0.1-0.2,0.3-0.2,0.4c0,0.1-0.1,0.3-0.1,0.4c-0.1,0.2-0.3,0.4-0.5,0.6c-0.2,0.2-0.3,0.4-0.4,0.6
		c0,0.1-0.1,0.3-0.1,0.4c0,0.2,0,0.3,0,0.5c0,0.2-0.1,0.3-0.1,0.4c0,0.1,0,0.2,0,0.3c0,0.2,0.2,0.1,0.3,0.1c0.3-0.1,0.6-0.3,0.9-0.3
		c0.2,0,0.3,0,0.5-0.1c0,0,0.1,0,0.1,0c0,0,0.1,0,0.1,0s0-0.1,0-0.1c0,0,0-0.1,0-0.1c0-0.3,0-0.6,0.2-0.9c0.1-0.1,0.2-0.2,0.3-0.4
		c0.1-0.1,0.2-0.2,0.3-0.3c0.1-0.1,0.2-0.1,0.4-0.1c0.1,0,0.1,0,0.2,0c0.1,0,0.1-0.1,0.1-0.1c0.1-0.2,0.3-0.4,0.4-0.6
		c0.3-0.4,0.6-0.8,0.6-1.4c0-0.2,0-0.3,0-0.4c0.1,0,0.2,0,0.4,0.1c0,0,0.1,0,0.1,0c0,0,0,0.1,0,0.1c0,0.1,0,0.1,0,0.2
		c0,0.2,0,0.4,0,0.6c0,0.1-0.1,0.2-0.1,0.3c-0.1,0.1-0.2,0.1-0.2,0.2c-0.1,0.2-0.2,0.4-0.2,0.6c-0.1,0.2-0.2,0.5-0.3,0.7
		c-0.1,0.2-0.2,0.4-0.4,0.6c-0.1,0.1-0.1,0.2-0.2,0.2c-0.1,0.1-0.2,0.1-0.2,0.2c-0.1,0.2-0.1,0.3-0.2,0.5c-0.1,0.1-0.2,0.2-0.3,0.4
		c-0.1,0.2-0.2,0.3-0.2,0.5c0,0.1,0,0.2-0.1,0.2c-0.1,0-0.1,0.1-0.2,0.1c-0.1,0.1-0.2,0.3-0.3,0.4c-0.1,0.4-0.2,0.7-0.4,1.1
		c-0.1,0.2-0.2,0.3-0.4,0.4c-0.1,0.1-0.3,0.1-0.5,0.2c-0.3,0.2-0.5,0.6-0.7,0.9c-0.3,0.4-0.4,0.9-0.7,1.2c-0.1,0.1-0.2,0.2-0.3,0.2
		C8.7,53.8,8.9,54,9,53.9c0.1-0.1,0.1-0.2,0.2-0.2c0.1-0.1,0.1-0.2,0.2-0.4c0.3-0.5,0.6-1,0.9-1.5c0,0,0.1,0.1,0.1,0.1c0,0,0,0,0,0
		c0,0,0.1,0,0.1,0c0.1-0.1,0.3-0.1,0.4-0.2c0.1,0,0.1-0.1,0.2-0.1c0,0,0,0,0.1-0.1c0,0,0-0.1,0-0.1c0-0.1,0-0.3,0-0.4
		c0.5,0.1,0.5-0.5,0.6-0.8c0,0.1,0.1,0.3,0.2,0.3c0.1,0,0.1,0,0.2,0c0.1,0,0.1-0.1,0.1-0.1c0.1-0.3,0.2-0.6,0.4-0.9
		c0.2,0.1,0.4,0.2,0.6,0.3c0.1-0.2,0.2-0.5,0.2-0.7c0-0.1,0.1-0.2,0.1-0.4c0-0.1,0.1-0.2,0.2-0.3c0.1,0.2,0.1,0.5,0.2,0.7
		c0.1-0.1,0.2-0.1,0.2-0.2c0.1-0.1,0.1-0.2,0.2-0.3c0.1-0.2,0.3-0.5,0.4-0.7c0.2-0.5,0.5-1,0.7-1.4c0.1-0.2,0.2-0.5,0.4-0.7
		c0.1-0.2,0.3-0.4,0.4-0.6c0.1-0.2,0.2-0.4,0.3-0.7c0.1-0.2,0.2-0.4,0.3-0.6c0.5-0.9,1-1.8,1.5-2.8c0.5-1,1-1.9,1.5-2.9
		c0.1-0.2,0.2-0.3,0.4-0.3c0.1,0,0.3,0,0.4,0.1c0.1,0.1,0.1,0.3,0.3,0.3c0,0,0.1,0,0.1,0c0,0,0,0,0.1,0c0,0,0,0,0,0c0,0,0-0.1,0-0.1
		c0.2-0.4,0.3-0.9,0.5-1.3c0.2-0.5,0.3-1,0.4-1.6s0.3-1,0.4-1.6c0.1-0.3,0.1-0.5,0.2-0.8c0.1-0.2,0.1-0.5,0.3-0.7
		c0.3-0.5,0.5-0.9,0.8-1.4c0.1-0.2,0.3-0.4,0.3-0.6c0.1-0.2,0.1-0.4,0.3-0.5c0.3-0.3,0.4-0.7,0.6-1.1s0.4-0.7,0.6-1.1
		c0.1-0.2,0.1-0.4,0.2-0.7c0-0.2,0.2-0.4,0.3-0.6c0.2-0.4,0.3-0.9,0.4-1.4c0-0.1,0-0.2,0.1-0.3c0.1-0.1,0.1-0.1,0.2-0.2
		c0,0.2,0.1,0.4,0.1,0.6c0,0.2,0,0.5,0,0.7c0,0.5,0,1-0.1,1.6c0,0.1,0,0.2,0,0.3c0,0.1-0.1,0.2-0.1,0.4c0,0.2-0.1,0.5-0.1,0.7
		c0,0.1,0,0.2,0,0.4c0,0.1,0,0.2,0.1,0.2c0.1,0.1,0.2-0.3,0.3-0.4c0.1-0.2,0.1-0.4,0.2-0.7c0-0.2,0-0.4,0-0.7c0-0.4,0-0.9,0.2-1.2
		c0,0,0.1-0.1,0.1-0.1c0-0.1,0-0.1,0-0.2c0-0.1,0-0.3,0-0.4c0-0.3,0-0.5,0.1-0.8c0-0.5,0.1-1,0.1-1.6c0-0.1,0-0.2,0-0.4
		c0-0.1,0-0.3,0-0.4c0-0.1,0.1-0.2,0.1-0.3c0-0.1,0.1-0.2,0.1-0.3c0.1-0.4,0.1-0.8,0.1-1.2c0-0.2,0.1-0.4,0.2-0.6
		c0.1-0.2,0.2-0.3,0.3-0.4c0.1-0.1,0.2-0.2,0.4-0.2c0,0,0.1,0,0.1,0c0.1,0,0,0,0.1,0.1c0,0.1,0,0.2,0,0.3c0,0.4,0,0.8,0.2,1.1
		c0,0.1,0,0.1,0,0.2c0,0.1,0,0.2-0.1,0.3c-0.1,0.2-0.1,0.5-0.1,0.7c-0.1,0.5,0,1,0,1.5c0,0.2,0,0.4,0,0.7c0,0.1,0,0.2,0,0.3
		c0,0.1-0.1,0.2-0.1,0.2c-0.2,0.4-0.1,0.8-0.2,1.2c0,0.2,0,0.5-0.1,0.7c-0.1,0.2-0.1,0.5-0.2,0.7c-0.3,0.9-0.7,1.8-1.1,2.7
		c-0.1,0.2-0.2,0.4-0.3,0.7c0.2,0.1,0.3,0.1,0.5,0c0.1-0.1,0.2-0.2,0.3-0.3c0.1-0.2,0.1-0.4,0.2-0.5c0.1-0.2,0.2-0.3,0.3-0.5
		c0.1-0.2,0.2-0.4,0.2-0.5c0-0.1,0-0.2,0.1-0.3c0-0.1,0.1-0.2,0.1-0.3c0.1-0.2,0.2-0.4,0.3-0.6c0.1-0.2,0.1-0.5,0.2-0.7
		c0.1-0.5,0.3-1,0.4-1.4c0.2-0.5,0.3-1,0.4-1.5c0.1-0.5,0.1-1,0.2-1.5c0.1-0.5,0.2-1,0.4-1.4c0.1-0.5,0.2-1,0.3-1.4
		c0-0.2,0.1-0.5,0.2-0.7c0.1-0.2,0.2-0.5,0.2-0.8c0.1-0.2,0.1-0.5,0.2-0.8c0.1-0.2,0.1-0.5,0.2-0.7c0.1-0.5,0.3-0.9,0.5-1.3
		c0.1-0.1,0.1-0.2,0.2-0.3c0-0.1,0.1-0.1,0.1-0.2c0,0,0-0.1,0-0.1c0,0,0,0,0-0.1c0,0,0,0,0,0c0,0,0.1,0.1,0.2,0.1
		c0.1,0,0.1,0.1,0.1,0.2c0.1,0.2,0.1,0.4,0.1,0.6c0,0.2,0,0.5,0,0.8c0,0.2,0,0.5,0,0.7c0,0.1,0,0.2,0,0.3c0,0.1-0.1,0.2-0.1,0.3
		c-0.2,0.4-0.2,0.9-0.3,1.3c0,0.2,0,0.5-0.1,0.7c0,0.2-0.1,0.5-0.1,0.7c-0.1,0.5-0.1,1-0.1,1.5c0,0.2,0,0.5,0,0.7c0,0.2,0,0.5,0,0.7
		c0,0.1-0.1,0.2-0.1,0.2c-0.1,0.1-0.1,0.2-0.1,0.3c0,0.2,0,0.4,0,0.6c0,0.2,0,0.4,0,0.6c0-0.1,0.1-0.1,0.2-0.2
		c0.1-0.1,0.1-0.1,0.1-0.2c0-0.2,0.1-0.4,0.1-0.6c0.1-0.4,0.1-0.8,0.3-1.1c0.2-0.8,0.5-1.5,0.8-2.2c0.3-0.7,0.6-1.5,0.9-2.2
		c0.1-0.4,0.3-0.7,0.4-1.1c0.1-0.4,0.2-0.7,0.3-1.1c0.1-0.4,0.3-0.7,0.4-1.1c0.1-0.4,0.2-0.8,0.3-1.1c0.2-0.8,0.4-1.5,0.6-2.3
		c0.1-0.4,0.2-0.8,0.2-1.1c0.1-0.4,0.2-0.7,0.3-1.1c0.1-0.2,0.1-0.4,0.2-0.6c0-0.1,0.1-0.2,0.1-0.2c0-0.1,0.1-0.1,0.2-0.2
		c0,0,0.1-0.1,0.1-0.1c0.1,0,0.1,0.1,0.1,0.1c0.1,0.2,0.1,0.4,0.2,0.6s0.1,0.4,0.1,0.6c0,0.2,0,0.4,0,0.6c0,0.4,0,0.8,0,1.2
		c0,0.4,0,0.8,0,1.2c0,0.4,0,0.8,0,1.2c0,0.2,0,0.4,0.1,0.6c0,0,0.1,0,0.1,0c0,0,0-0.1,0-0.1c0-0.1,0-0.2,0.1-0.3
		c0-0.2,0.1-0.4,0.1-0.6c0.1-0.4,0.2-0.8,0.3-1.2c0.1,0.2,0.3,0.5,0.4,0.7c0.1,0.3,0.1,0.6,0.2,0.9c0.1,0.6,0.1,1.2,0.2,1.8
		c0,0.3,0.1,0.7,0.2,1c0.1-0.9,0.2-1.9,0.3-2.8c0-0.1,0-0.2,0-0.4c0,0,0-0.1,0-0.1c0,0,0.1,0,0.1,0c0,0,0.1,0,0.1,0c0,0,0,0,0.1,0
		c0.1,0.2,0.2,0.3,0.4,0.5c0.2,0.3,0.3,0.7,0.4,1.1c0.1,0.4,0.1,0.9,0.2,1.3c0.1,0.4,0.3,0.8,0.4,1.2c0,0.2,0.1,0.4,0.1,0.7
		c0,0.2,0.1,0.5,0.1,0.7c0.1,0.4,0.1,0.9,0.2,1.4c0.1,0.4,0.2,0.9,0.2,1.3c0,0.4,0,0.9,0.1,1.3c0,0.2,0.1,0.4,0.1,0.6
		c0.1,0.2,0.1,0.4,0.1,0.6c0,0.4,0,0.9,0.1,1.3c0,0.2,0.1,0.4,0.1,0.6c0,0.2,0,0.4,0.1,0.7c0,0.4,0,0.9,0.2,1.3
		c0.1,0.4,0.2,0.8,0.3,1.2c0,0.2,0.1,0.4,0.1,0.6c0,0.1,0,0.2,0,0.3c0,0.1,0,0.1,0.1,0.2c0.1,0.1,0.1,0.2,0.2,0.3
		c0.1,0.1,0.2,0.1,0.3,0.2c0.3,0.2,0.3,0.6,0.4,0.8c0,0.1,0.1,0.1,0.1,0.2c0.1,0.1,0.1,0.2,0.1,0.3c0.1,0.2,0.1,0.4,0.2,0.6
		c0.1,0.4,0.2,0.8,0.3,1.3c0,0,0,0.1,0,0.1c0,0,0,0.1,0.1,0.2c0,0,0.1,0,0.2,0.1c0-0.2,0-0.4,0.1-0.6c0,0,0,0,0,0l0,0c0,0,0,0,0,0
		c0,0,0,0,0,0c0,0,0,0,0,0c0,0,0,0,0,0c0,0,0,0,0.1,0c0,0,0,0,0,0c0,0,0,0,0,0c0,0,0,0,0,0c0,0,0,0,0,0c0,0,0,0,0,0c0,0,0,0,0,0
		c0.1,0,0.1,0,0.2,0l0,0c0.1,0.1,0.2,0.2,0.3,0.4c0,0,0,0,0,0c0,0,0,0,0,0c0,0,0,0,0,0c0,0,0,0,0,0c0,0,0,0.1,0.1,0.1
		c0,0,0.1,0.1,0.1,0.1c0,0,0,0,0,0l0,0l0,0c0,0,0,0,0,0c0,0.1,0.1,0.1,0.1,0.2c0,0,0,0,0,0c0.1,0.1,0.1,0.3,0.2,0.4
		c0,0.1,0.1,0.1,0.2,0.2l0,0l0,0l0,0v0l0,0l0,0c0,0,0,0,0,0c0.1-0.8-0.3-1.3-0.7-1.7c-0.5-0.4-0.7-1.1-0.9-1.6l0,0l0,0l0,0l0,0l0,0
		l0,0c-0.1-0.2-0.2-0.4-0.3-0.6c-0.3-0.5-0.7-1-1-1.6l0,0c0,0,0,0,0,0c0,0,0,0.1,0,0c0,0,0,0,0,0c0,0,0-0.1-0.1-0.1
		c-0.1-0.3-0.2-0.8-0.3-1.2c0-0.1,0-0.1-0.1-0.3h0v0c-0.2-0.8-0.2-1.6-0.2-2.4c0,0,0,0,0,0c0-0.1,0-0.2,0-0.3l0,0c0,0,0,0,0,0.1
		c0,0,0,0,0-0.1c0,0,0,0,0,0v0v0c0-0.1,0-0.2,0-0.3c0,0,0,0,0,0c0.1-0.7,0.2-1.3,0.4-1.9c0.1-0.2,0.1-0.4,0.1-0.7c0,0,0,0,0,0
		c0-0.1,0-0.2,0-0.3c0.1,0.1,0.2,0.1,0.2,0.2c0,0,0,0,0,0l0,0c0,0,0,0,0,0c0,0.1,0.1,0.1,0.1,0.2c0,0,0,0,0,0c0,0,0,0,0,0
		c0,0,0,0,0,0c0,0.1,0.1,0.1,0.1,0.2v0c0,0,0,0,0,0.1c0,0.1,0.1,0.1,0.1,0.2c0,0,0,0,0,0v0c0,0,0,0,0,0c0,0,0,0.1,0,0.1c0,0,0,0,0,0
		c0,0.1,0.1,0.2,0.1,0.3c0,0,0,0,0,0c0,0,0,0,0,0c0,0,0,0.1,0,0.1c0,0,0,0,0,0c0,0,0,0,0,0c0,0,0,0,0,0c0,0.1,0,0.2,0,0.3
		c0,0.1,0,0.2,0,0.3c0.1,0.4,0.2,0.7,0.3,1.1c0.1,0.3,0.1,0.6,0.2,0.9c0,0.1,0,0.2,0.1,0.3c0.1,0.4,0.2,0.7,0.3,1.1
		c0.1,0.5,0.3,1,0.5,1.5c0.1,0.3,0.2,0.5,0.4,0.7c0,0,0,0,0,0c0,0.1,0.1,0.1,0.1,0.2l0,0c0,0,0-0.1,0,0c0,0,0,0,0,0
		c0,0.1,0,0.1,0.1,0.2h0c0.1,0.2,0.2,0.4,0.2,0.6l0,0h0c0.1,0.4,0.3,0.7,0.5,0.9c0,0,0,0,0,0c0,0,0,0,0,0c0.1,0.2,0.3,0.3,0.4,0.4
		c0.1,0.1,0.2,0.2,0.3,0.3l0,0c0,0,0,0,0,0c0,0,0.1,0.1,0.1,0.1l0,0l0,0c0.1,0.2,0.3,0.4,0.3,0.6c0,0,0,0,0,0c0,0,0,0.1,0,0.1l0,0
		c0,0,0-0.1,0,0l0,0c0,0.1,0.1,0.2,0.2,0.3c0,0,0,0,0,0c0.1,0.1,0.1,0.3,0.2,0.4c0-0.1-0.1-0.1-0.1-0.2c0.3,0.6,0.5,1.1,0.7,1.7
		c0.1,0.2,0.1,0.4,0.1,0.5c0,0,0,0,0,0c0,0,0,0.1,0,0.1v0c0,0.3,0.1,0.6,0.2,0.8c0,0.1,0,0.2,0.1,0.2c0,0,0,0.1,0,0.1
		c0,0.1,0,0.1,0.1,0.2c0,0,0,0.1,0,0.1c0,0.1,0,0.1,0.1,0.2c0,0.1,0.1,0.3,0.1,0.4c0,0.1,0.1,0.2,0.1,0.3c-0.1-0.1-0.2-0.1-0.3-0.2
		c0,0,0,0-0.1-0.1c-0.2,0.3-0.2,0.4-0.5,0c-0.2-0.2-0.5-0.2-0.8-0.5c0.1,0.4,0.2,0.9,0.3,1.3c0.1,0.2,0.1,0.3,0.2,0.5c0,0,0,0,0,0
		c0.1,0.2,0.2,0.4,0.3,0.6c0.1,0.2,0.1,0.4-0.1,0.6h0c-0.2,0.1-0.2,0.4-0.2,0.6c-0.4,0-0.7-0.1-0.8-0.5c0,0,0,0,0,0c0,0,0,0,0,0
		c-0.1-0.2-0.2-0.4-0.2-0.7c0,0,0,0,0,0c0,0,0,0,0,0l0,0c0,0,0,0,0,0c-0.1-0.7-0.3-1.4-0.9-1.7c-0.2-0.1-0.4-0.4-0.4-0.7
		c-0.1-0.5-0.3-1-0.5-1.4c0-0.1-0.1-0.1-0.1-0.2c0,0,0,0.1,0.1,0.1c0,0,0-0.1-0.1-0.1c0,0,0,0,0,0c0,0,0,0,0,0c0,0,0,0,0,0
		c0-0.1-0.1-0.1-0.2-0.2l0,0l0,0l0,0l0,0c0,0,0-0.1,0-0.1c0,0,0-0.1,0-0.2c0,0,0,0,0,0c0,0,0,0,0,0c0,0,0,0,0-0.1s0,0,0,0
		c0-0.1-0.1-0.2-0.2-0.3c0,0,0,0.1,0,0.2c0,0.1,0,0.2,0,0.3c0,0.4,0,0.7,0.2,1.1c0.1,0.2,0.1,0.3,0.2,0.5c0,0.2,0.1,0.3,0.1,0.5
		c0,0.4,0.1,0.7,0.2,1.1c0.1,0.4,0.2,0.8,0.4,1.1c0.2,0.4,0.3,0.7,0.5,1c0.2,0.4,0.3,0.7,0.3,1.1c0,0.1,0,0.2,0.1,0.3c0,0,0,0,0,0.1
		c0,0,0,0,0,0c0,0,0.1,0,0.1,0c0.1,0,0.2,0.1,0.3,0.2c0.1,0.1,0.2,0.2,0.2,0.4c0,0.2,0,0.3,0.1,0.5c0.1,0.3,0.2,0.5,0.4,0.8
		c0,0.1,0.1,0.1,0.1,0.2c0,0.1,0.1,0.2,0.1,0.2c0,0.1,0.1,0.1,0.2,0c0,0,0.1-0.1,0.1-0.2c0,0,0.1-0.1,0.2-0.1c0.1,0,0.2-0.1,0.3,0
		c0.2,0.3,0.3,0.6,0.5,0.9c0.1,0.3,0.2,0.7,0.2,1c0,0.2,0.1,0.4,0.1,0.6c0.1,0.2,0.1,0.4,0.2,0.6c0.1,0.2,0.1,0.4,0.2,0.6
		c0,0,0,0.1,0,0.1c0,0,0.1,0.1,0.1,0.1c0.1,0.1,0.2,0.1,0.3,0.2c0.1,0.1,0.3,0.2,0.4,0.3c0.1,0,0.2,0.1,0.3,0
		c0.2-0.1,0.2-0.4,0.2-0.6c0-0.4,0-0.8,0-1.2c0-0.2,0-0.4,0-0.6c0.2,0.1,0.4,0.2,0.6,0.3c0,0,0.1,0,0.1,0c0,0,0,0,0,0.1
		c0,0.1,0,0.1,0,0.2c0,0.1,0,0.1,0,0.2c0,0,0,0.1,0,0.1c0,0,0,0,0,0c0,0,0,0,0.1,0c0.1,0,0.2,0,0.4,0.1c0,0,0,0,0.1,0.1
		c0,0,0,0.1,0,0.1c0,0.1,0,0.1,0,0.2c0.1,0.3,0.1,0.5,0.2,0.8c0,0.1,0.1,0.2,0.2,0.4c0.1,0.1,0.2,0.2,0.2,0.3
		c0.1-0.1,0.1-0.2,0.2-0.3c0.1,0,0.2-0.1,0.3,0c0.1,0,0.2,0.2,0.2,0.2c0.1,0.1,0.2,0.3,0.2,0.4c0.1,0.1,0.2,0.3,0.2,0.4
		c0,0.1,0.1,0.1,0.1,0.2c0,0,0,0.1,0.1,0.1c0,0,0.1,0,0.1,0c0.3,0,0.6-0.1,0.9,0.1c0.1,0.1,0.2,0.2,0.3,0.3c0,0.1,0.1,0.1,0.1,0.2
		c0,0,0.1,0.1,0.1,0.1c0,0,0.2,0,0.2,0c0,0,0-0.1,0-0.2c0-0.1-0.1-0.1-0.1-0.1c-0.1-0.1-0.1-0.1-0.2-0.2c-0.2-0.2-0.5-0.5-0.7-0.7
		c-0.1-0.1-0.1-0.1-0.2-0.2c0,0-0.1-0.1-0.1-0.2c-0.1-0.1-0.1-0.3-0.1-0.4c-0.1-0.3-0.1-0.6-0.2-0.9c0-0.2-0.1-0.3-0.1-0.5
		c0,0,0-0.1,0-0.1c0,0,0,0-0.1,0c0,0-0.1-0.1-0.2-0.1c-0.2-0.2-0.4-0.2-0.6-0.4c-0.2-0.2-0.2-0.4-0.2-0.7c0-0.3,0-0.6-0.1-0.8
		c-0.1-0.1-0.2-0.2-0.2-0.4c-0.1-0.1-0.1-0.3-0.2-0.4c-0.1-0.3-0.2-0.5-0.3-0.8c-0.1-0.3-0.3-0.6-0.4-0.8c-0.1-0.1-0.1-0.3-0.2-0.4
		c-0.1-0.1-0.1-0.3-0.2-0.4c-0.1-0.1-0.1-0.2-0.2-0.4c-0.1-0.1-0.1-0.2-0.1-0.4c0-0.2,0-0.5-0.2-0.6c0-0.1-0.1-0.1-0.2-0.2
		c0,0,0,0-0.1,0c0,0,0-0.1,0-0.1c0-0.1,0-0.1-0.1-0.2c0-0.1-0.1-0.2-0.1-0.4c-0.1,0.2-0.2,0.3-0.4,0.5c-0.1-0.1-0.3-0.2-0.3-0.4
		c-0.1-0.3-0.1-0.5-0.1-0.8s-0.1-0.5-0.1-0.8c0-0.1,0-0.2-0.1-0.4c0-0.1-0.1-0.2-0.1-0.3c-0.1,0.2-0.2,0.5-0.3,0.7
		c-0.3-0.8-0.6-1.6-0.8-2.4c-0.1-0.4-0.3-0.8-0.4-1.2c-0.2-0.4-0.3-0.8-0.5-1.2c-0.1-0.3-0.2-0.7-0.5-1c-0.2-0.3-0.5-0.6-0.8-0.9
		c-0.2-0.2-0.4-0.5-0.4-0.8c0-0.2-0.1-0.4-0.1-0.5c-0.1-0.2-0.2-0.3-0.2-0.5c-0.2-0.4-0.2-0.8-0.3-1.2c0-0.2-0.1-0.4-0.1-0.6
		c0-0.2-0.1-0.4-0.1-0.6c0-0.2-0.1-0.3,0-0.5c0.1-0.1,0.2-0.2,0.4-0.1c0.1,0,0.1,0.1,0.2,0.2c0.1,0.1,0.1,0.2,0.2,0.3
		c0.1,0.2,0.2,0.4,0.2,0.5c0.2,0.3,0.4,0.7,0.5,1c0.1,0.2,0.1,0.4,0.2,0.6c0.1,0.2,0.2,0.4,0.2,0.6c0.2,0.3,0.4,0.6,0.6,0.9
		c0.1,0.1,0.3,0.5,0.5,0.3c0.1-0.1,0.2-0.2,0.3-0.3c0.1,0,0.2,0,0.2,0.1c0.1,0.1,0.1,0.2,0.1,0.3c0.1,0.1,0.1,0.2,0.2,0.4
		c0.2,0.4,0.4,0.8,0.6,1.1c0.2,0.4,0.4,0.8,0.6,1.1c0.1,0.2,0.2,0.4,0.2,0.5c0.1,0.2,0.1,0.4,0.2,0.6c0.2,0.4,0.4,0.7,0.5,1.1
		c0.3,0.8,0.5,1.6,0.8,2.4c0.1,0.4,0.3,0.8,0.4,1.2c0.1,0.2,0.1,0.4,0.2,0.6c0,0.2,0.1,0.4,0.2,0.5c0.1,0.1,0.1,0.3,0.2,0.4
		c0.1,0.1,0.1,0.3,0.2,0.4c0.1,0.1,0.1,0.3,0.2,0.4c0,0,0.1,0.1,0.1,0.1c0,0.1,0,0.1,0,0.2c0,0.3,0,0.6,0.3,0.8
		c0.2,0.2,0.5,0.1,0.8,0.1c0.2,0,0.3,0,0.5,0c0.2,0,0.4,0.1,0.5,0.3c0.2,0.2,0.5,0.3,0.7,0.5c0.1,0.1,0.2,0.2,0.3,0.4
		c0.1,0.2,0.1,0.3,0.2,0.5c0.2,0.3,0.4,0.7,0.5,1c0.1,0.3,0.3,0.6,0.5,0.9c0.1,0.1,0.2,0.2,0.3,0.4c0.1,0.1,0.2,0.3,0.3,0.4
		c0.1,0.1,0.2,0.2,0.3,0.4c0.1,0.1,0.2,0.2,0.2,0.3c0.1,0.2,0.3,0.4,0.6,0.4c0.1,0,0.1,0,0.2,0c0.1,0,0.1,0,0.2,0
		c0.1,0.1,0.1,0.2,0.2,0.2c0.1,0.1,0.1,0.2,0.2,0.3c0.2,0.3,0.5,0.6,0.8,0.9c0.1,0.1,0.1,0.1,0.2,0.2c0.1,0,0.1,0.1,0.2,0.1
		c0.1-0.1,0.2-0.2,0.3-0.3c0,0.2,0,0.3,0.1,0.4c0,0.1,0,0.1,0,0.2c0,0,0,0.1,0,0.1c0,0,0.1,0,0.1,0c0.3,0,0.6,0.1,0.9,0
		C63.5,50.9,63.5,50.8,63.4,50.8z M50.4,18.7c0,0,0.2,0,0.2,0c0.2,0.3,0.3,0.5,0.4,0.8c0.3,0.6,0.6,1.2,0.9,1.8
		c0.1,0.3,0.2,0.6,0.3,0.9c0,0.1,0.1,0.2,0.1,0.3c0-0.1,0.1-0.2,0.1-0.3s0-0.2,0.1-0.3c0,0,0.1,0,0.1,0c0.1,0.3,0.2,0.7,0.3,1
		c0.1,0.5,0.3,1.1,0.4,1.6c0,0.1,0,0.1,0,0.2c0,0.5,0.2,0.9,0.4,1.4c0.2,0.5,0.4,1.1,0.5,1.6c0.1,0.2,0.1,0.3,0.3,0.2
		c0-0.7-0.2-1.3-0.4-2c-0.1-0.3-0.2-0.7-0.3-1.1c0,0,0.1-0.1,0.1-0.2c0.2,0.2,0.5,0.2,0.6,0.5c0.2,0.6,0.6,1.1,0.8,1.7
		c0.2,0.5,0.3,1,0.5,1.5c0.1,0.4,0.3,0.8,0.5,1.2c0.1,0.3,0.3,0.6,0.4,0.9c0.1,0.3,0.2,0.6,0.4,0.8c0.1,0.1,0.2,0.1,0.4,0.2
		c0.2,0.1,0.5,0.2,0.6,0.4c0.2,0.2,0.2,0.6,0.3,0.9c0.2,0.5,0.3,1.1,0.5,1.6c0.1,0.3,0.2,0.7,0.2,1c0.1,0.5,0.2,1.1,0.3,1.6
		c0.1,0.4,0.1,0.8-0.4,1c0-0.5-0.1-0.9-0.1-1.5c-0.2,0.1-0.2,0.2-0.3,0.3c-0.1-0.2-0.1-0.4-0.2-0.6c-0.3-0.3-0.6-0.5-0.9-0.8
		c0.1-0.4-0.2-0.6-0.5-0.6c-0.3,0-0.4-0.5-0.5-0.8c-0.3-0.5-0.5-1.1-0.5-1.8c0-0.2,0-0.3-0.1-0.6c-0.3,0.4-0.5,0.1-0.6-0.2
		c0-0.1-0.1-0.1-0.1-0.2c-0.2-0.2-0.3-0.3-0.6-0.5c0,0-0.1,0.1-0.2,0.1c0,0-0.1-0.1-0.1-0.1c0-0.2-0.1-0.3-0.1-0.5
		c0-0.6-0.2-1.2-0.4-1.7c-0.2-0.5-0.3-1.1-0.5-1.6c0,0-0.1,0.1-0.2,0.1c0,0-0.1,0-0.1-0.1c0-0.4-0.2-0.6-0.5-0.6
		c-0.1,0-0.2-0.1-0.2-0.1c-0.1-0.3-0.2-0.7-0.3-1c-0.1-0.3-0.2-0.5-0.3-0.8c-0.3-0.8-0.6-1.6-1.1-2.2c-0.1-0.2-0.2-0.5-0.2-0.8
		c-0.1-0.6-0.2-1.3-0.3-1.9c0-0.3,0-0.6,0-0.9C50.3,18.9,50.4,18.8,50.4,18.7z M14.8,42.8c0,0.1,0,0.1,0,0.2c0,0.2,0,0.4,0,0.6
		c0,0-0.1,0-0.2,0c0,0,0-0.1,0-0.1c0,0,0-0.1,0-0.2c0-0.2,0-0.4,0-0.6C14.6,42.8,14.7,42.8,14.8,42.8C14.8,42.8,14.8,42.8,14.8,42.8
		z M15.6,42c0,0.1,0,0.2,0,0.3c0,0.2,0,0.4,0,0.7c-0.1-0.2-0.2-0.4-0.2-0.6c0-0.1,0-0.2,0-0.3c0,0,0-0.1,0-0.1c0,0,0-0.1,0-0.1
		c0,0,0,0,0.1,0C15.6,41.9,15.6,41.9,15.6,42C15.6,42,15.6,42,15.6,42z M26.1,23.3c0,0.4-0.4,0.8-0.6,1.1c-0.1-0.2-0.2-0.3-0.3-0.5
		c0-0.1-0.1-0.1-0.1-0.2c0-0.1,0-0.2,0-0.3c0.1-0.5,0.3-0.9,0.4-1.4c0.1-0.2,0.1-0.5,0.2-0.7c0-0.1,0.1-0.2,0.1-0.3
		c0-0.1,0-0.1,0-0.2c0,0,0-0.1,0-0.2c0-0.1,0.1-0.1,0.2,0c0.1,0.1,0.1,0.2,0.1,0.3c0,0.2,0,0.5,0,0.8C26.2,22.2,26.2,22.8,26.1,23.3
		z M41.9,18.6C42,18.6,42,18.6,41.9,18.6c0.2-0.4,0.5-0.8,0.5-1.2c0.1-0.6,0.5-0.8,0.6-1.3c0.1-0.4,0.6-0.9,0.9-0.8
		c0,0.4,0,0.9,0,1.3c0,0.3-0.1,0.5-0.2,0.7c-0.2,0.4-0.5,0.7-0.6,1.1c-0.2,0.7-0.8,0.6-0.9,1.2c0-0.1,0-0.2-0.1-0.3
		C42,19.1,42,18.8,41.9,18.6z M42.7,25.5C42.7,25.5,42.7,25.5,42.7,25.5C42.7,25.5,42.7,25.5,42.7,25.5z M43.8,20.8
		c-0.1-0.1-0.2-0.2-0.3-0.2c-0.1,0-0.2,0-0.3,0.1c-0.2,0.2-0.3,0.5-0.5,0.7c-0.1-0.3-0.2-0.5-0.3-0.8c0,0,0.1-0.1,0.1-0.1
		c0.2-0.7,0.8-1.2,1.1-1.8c0.1-0.2,0.2-0.3,0.2-0.5c0.4-0.9,0.9-1.6,1.4-2.4c0.3-0.4,0.6-0.9,0.8-1.4c0-0.1,0.1-0.1,0.2-0.2
		c0,0.1,0.1,0.2,0.1,0.3c0,0.1-0.1,0.3-0.1,0.4c0,0.1-0.1,0.2-0.1,0.3c-0.1,0.4-0.3,0.8-0.4,1.3c-0.1,0.2-0.1,0.5-0.1,0.7
		c0,0.4-0.2,0.7-0.3,1c-0.1,0.3-0.4,0.5-0.4,0.9c0,0.1-0.1,0.2-0.2,0.3c-0.2,0.5-0.4,0.9-0.7,1.4c0,0,0,0.1-0.1,0.2
		C43.9,21,43.8,20.9,43.8,20.8z M47.5,40.8L47.5,40.8L47.5,40.8L47.5,40.8z"/>
	<path fill="#FFFFFF" d="M42.7,25.9C42.7,25.9,42.7,25.9,42.7,25.9C42.7,25.9,42.7,25.9,42.7,25.9z"/>
	<path fill="#FFFFFF" d="M48.9,40.6L48.9,40.6C48.9,40.6,48.9,40.6,48.9,40.6C48.9,40.6,48.9,40.6,48.9,40.6z"/>
	<path fill="#FFFFFF" d="M44,23.9L44,23.9C44,23.9,44,23.9,44,23.9C44,23.9,44,23.9,44,23.9z"/>
	<path fill="#FFFFFF" d="M45.9,35.2L45.9,35.2L45.9,35.2C45.9,35.2,45.9,35.2,45.9,35.2z"/>
	<path fill="#FFFFFF" d="M45.8,34.8c0,0,0,0.1,0,0.1C45.8,34.9,45.8,34.9,45.8,34.8z"/>
	<path fill="#FFFFFF" d="M45.9,35.2L45.9,35.2L45.9,35.2z"/>
</g>
</svg>
