<?xml version="1.0" encoding="utf-8"?>
<!-- Generator: Adobe Illustrator 18.1.1, SVG Export Plug-In . SVG Version: 6.00 Build 0)  -->
<svg version="1.1" id="Layer_3" xmlns="http://www.w3.org/2000/svg" xmlns:xlink="http://www.w3.org/1999/xlink" x="0px" y="0px"
	 viewBox="0 0 64 64" enable-background="new 0 0 64 64" xml:space="preserve">
<g>
	<path fill="#E1DFD8" d="M43.3,29.9L43.3,29.9L43.3,29.9z"/>
	<path fill="#E1DFD8" d="M15.6,43C15.6,42.6,15.4,42.7,15.6,43L15.6,43z"/>
	<path fill="#E1DFD8" d="M14.7,43.6C14.7,43.3,14.7,43.6,14.7,43.6L14.7,43.6z"/>
	<path fill="#E1DFD8" d="M42.7,25.6L42.7,25.6L42.7,25.6z"/>
	<path fill="#E1DFD8" d="M45.8,30.4L45.8,30.4L45.8,30.4L45.8,30.4z"/>
	<path fill="#E1DFD8" d="M47.8,33.7L47.8,33.7L47.8,33.7z"/>
	<path fill="#E1DFD8" d="M46.2,35.4L46.2,35.4L46.2,35.4L46.2,35.4L46.2,35.4z"/>
	<path fill="#E1DFD8" d="M46.6,32.2L46.6,32.2L46.6,32.2L46.6,32.2z"/>
	<path fill="#E1DFD8" d="M48.8,40.5C48.8,40.5,48.8,40.6,48.8,40.5c0-0.1-0.1-0.3-0.2-0.5C48.6,40.2,48.7,40.4,48.8,40.5z"/>
	<path fill="#E1DFD8" d="M45.9,30.6L45.9,30.6L45.9,30.6z"/>
	<path fill="#E1DFD8" d="M42.7,25.9C42.7,26,42.7,25.9,42.7,25.9L42.7,25.9z"/>
	<path fill="#E1DFD8" d="M45.7,36.8C45.7,36.9,45.7,36.9,45.7,36.8C45.8,36.9,45.8,36.9,45.7,36.8C45.7,36.9,45.7,36.9,45.7,36.8z"
		/>
	<path fill="#E1DFD8" d="M48.8,41.2C48.9,41.1,48.8,41.2,48.8,41.2L48.8,41.2z"/>
	<path fill="#E1DFD8" d="M63.4,50.8c-0.1-0.2-0.2-0.4-0.4-0.5c-0.2-0.3-0.4-0.6-0.6-0.9c-0.3-0.4-0.5-0.8-0.8-1.1
		c-0.3-0.5-0.6-0.9-0.9-1.4c-0.4-0.5-0.7-1.1-1.1-1.6c-0.4-0.6-0.8-1.2-1.2-1.8s-0.8-1.2-1.3-1.9c-0.4-0.7-0.9-1.3-1.3-2
		c-0.4-0.7-0.9-1.3-1.4-2s-0.9-1.3-1.4-2c-0.4-0.7-0.9-1.3-1.3-2c-0.4-0.6-0.9-1.3-1.3-1.9c-0.4-0.6-0.8-1.2-1.2-1.8
		c-0.4-0.6-0.8-1.1-1.1-1.7c-0.3-0.5-0.7-1-1-1.5c-0.3-0.4-0.6-0.8-0.8-1.3c-0.2-0.3-0.4-0.7-0.7-1c-0.2-0.2-0.3-0.5-0.5-0.7
		c-0.1-0.1-0.2-0.2-0.2-0.4l0,0c-0.2-0.5-0.4-1.1-0.7-1.6c0-0.1,0.1-0.1,0.1-0.2c0.2-0.4,0.3-0.7,0.5-1.1c0.2-0.5,0.5-1,0.6-1.5
		c0.1-0.4,0.2-0.8,0.3-1.2c0.1-0.5,0.2-1,0.3-1.4c0-0.1,0.2-0.1,0.2-0.2s0-0.2,0.1-0.2c0.4,0,0.4-0.5,0.4-0.8c0-0.8,0.1-1.5,0.2-2.3
		c0-0.2,0.2-0.3,0.3-0.5c0.1,0.1,0.2,0.2,0.2,0.3c0.2,0.6,0.3,1.2,0.4,1.8c0,0.1,0,0.3,0.1,0.5c0.1,0.3,0.2,0.6,0.2,0.9
		c0.1,1.7-0.1,3.4,0.2,5.1c0.2,0.8,0,1.7,0.3,2.6c0.2,0.7,0.2,1.5,0.3,2.2c0.1,0.4,0.2,0.7,0.3,1.1c0.1,0.3,0.1,0.6,0.3,0.8
		c0.3,0.4,0.4,0.9,0.6,1.3c0.1,0.2,0.2,0.5,0.4,0.7c0.1,0,0.1-0.1,0.2-0.1c-0.1-0.3-0.2-0.5-0.3-0.8c-0.1-0.4-0.2-0.8-0.3-1.2
		c-0.1-0.3-0.2-0.5-0.3-0.8c-0.1-0.4-0.3-0.8-0.4-1.2c-0.1-0.4,0-0.8-0.1-1.2c-0.3-0.9-0.1-1.8-0.2-2.7c0.3-0.1,0.4,0,0.4,0.4
		c0,0.2,0,0.3,0.1,0.5c0.1,0.4,0.3,0.8,0.4,1.3c0.2,0.6,0.1,1.5,0.7,1.8l0,0c0.2,0.4,0.5,0.8,0.7,1.2c0.1,0.1,0.2,0.2,0.2,0.3
		c0.1,0.3,0.2,0.7,0.3,1.1c0,0.1,0.1,0.3,0.2,0.4c0.2,0.4,0.6,0.7,0.7,1.1c0.2,0.7,0.6,1,0.9,1.5c0.1,0.2,0.2,0.4,0.3,0.6
		c0.1,0.3,0.2,0.6,0.3,0.9s0.3,0.6,0.5,0.9c0.1,0.2,0.2,0.3,0.3,0.5s0.3,0.4,0.4,0.6c0.1,0.3,0.3,0.5,0.4,0.8
		c0.2,0.5,0.4,0.9,0.5,1.4c0.1,0.4,0.3,0.5,0.5,0.8c0.1,0.1,0.2,0.3,0.3,0.5s0.1,0.4,0.1,0.5c0.3,0,0.6-0.1,0.8-0.1
		c0,0,0,0.1,0.1,0.2c0.1,0.2,0.2,0.4,0.4,0.4c0.3,0.2,0.6,0.2,0.6,0.8c0,0.1,0.1,0.1,0.1,0.2c0.2,0.3,0.4,0.7,0.6,0.9
		c0.2,0.2,0.3,0.7,0.6,0.2c-0.1-0.2-0.3-0.5-0.4-0.7c-0.1-0.8-0.2-1.7-0.3-2.6c0-0.2,0-0.5-0.1-0.6c-0.3-0.4,0.1-0.5,0.1-0.7
		c0.2,0,0.4-0.1,0.5,0.2c0.1,0.2,0.2,0.5,0.3,0.6c0.3,0.3,0.4,0.9,0.6,1.3c0.1,0.1,0.1,0.3,0.2,0.4c0-0.2,0.1-0.4,0.1-0.5
		s-0.1-0.2-0.1-0.3c-0.1-0.3-0.2-0.5-0.3-0.8c-0.2-0.4-0.3-0.8-0.5-1.2c-0.1-0.2-0.2-0.3-0.2-0.5c-0.2-0.4-0.3-0.9-0.5-1.4
		c-0.3-0.6-0.6-1.3-0.9-1.9c-0.3-0.6-0.6-1.3-1.1-1.7c-0.2-0.2-0.4-0.4-0.6-0.6c-0.1-0.1-0.1-0.4-0.2-0.6c-0.2-0.4-0.3-0.8-0.5-1.2
		c-0.2-0.3-0.2-0.8-0.4-1.1c-0.2-0.3-0.5-0.6-0.5-1.1c0-0.3-0.3-0.5-0.4-0.8c-0.2-0.2-0.3-0.5-0.5-0.7c-0.3-0.4-0.6-0.8-0.9-1.2
		c-0.1-0.2-0.3-0.4-0.4-0.7c0-0.4-0.2-0.7-0.3-1.1c-0.1-0.2-0.2-0.5-0.3-0.7c-0.2-0.4-0.4-0.7-0.6-1c-0.2-0.3-0.4-0.6-0.6-0.9
		c-0.7-0.7-1.2-1.5-1.6-2.6c-0.5-0.2-0.6-0.3-0.6-0.9c0-0.1-0.1-0.2-0.1-0.4c-0.3-0.6-0.8-1.2-0.9-2c0-0.3-0.1-0.7-0.2-0.9
		c-0.2-0.4-0.4-0.3-0.6-1.4c-0.1,0-0.3,0-0.5,0c-0.1,1-0.2,0.5-0.3,0.7c-0.2,0.4-0.4,0.8-0.6,1.2c-0.1,0.2-0.2,0.5-0.3,0.7
		c-0.2,0.4-0.5,0.6-0.7,0.9c-0.4,0.3-0.7,0.3-1-0.1l-0.1-0.1c-0.2-0.1-0.3-0.1-0.5-0.2c-0.1,0.1-0.2,0.3-0.3,0.4
		c-0.2,0.4-0.4,0.9-0.7,1.3c-0.2,0.4-0.7,0.9-1,1.1c0,0,0,0-0.1,0c-0.1-0.3-0.1-0.5-0.2-0.8c-0.1-0.4-0.1-0.8-0.2-1.1
		c-0.1-0.3-0.2-0.7-0.3-1c-0.2-0.3-0.4-0.7-0.6-1c-0.2-0.3-0.4-0.7-0.6-1c-0.1-0.1-0.2-0.3-0.3-0.4c-0.1-0.1-0.2-0.2-0.3-0.3
		c-0.2-0.4-0.3-0.8-0.4-1.3c-0.1-0.2-0.1-0.3-0.2-0.5c0-0.1-0.1-0.2-0.1-0.3c-0.1-0.2-0.1-0.3-0.2-0.5c-0.1-0.3-0.3-0.6-0.5-0.9
		C37.4,7.6,37.3,7.3,37,7c-0.1-0.1-0.2-0.1-0.3-0.1S36.4,7,36.3,7c-0.1,0.1-0.2,0.2-0.2,0.3C36,7.4,36,7.6,35.9,7.7
		c-0.1,0.3-0.2,0.7-0.4,1C35.4,9,35.2,9.3,35,9.6c-0.2,0.3-0.4,0.6-0.6,0.9c-0.2,0.3-0.3,0.7-0.4,1c-0.2,0.3-0.3,0.6-0.5,1
		c0,0,0,0.1-0.1,0.1l0,0l0,0c-0.1,0-0.1,0-0.2,0c-0.1,0-0.2,0-0.3,0.1c-0.3,0.2-0.4,0.5-0.5,0.8s-0.3,0.7-0.4,1
		c-0.1,0.2-0.2,0.3-0.2,0.4c-0.1,0.2-0.2,0.3-0.2,0.5c0,0.1-0.1,0.3-0.1,0.4c0,0.2-0.1,0.4-0.1,0.5c0,0.2-0.1,0.3-0.2,0.5
		S31,17.1,31,17.3c-0.2,0.3-0.4,0.7-0.6,1s-0.3,0.5-0.6,0.8c-0.1,0.1-0.2,0.2-0.3,0.2c-0.1,0-0.3,0-0.4-0.1l0,0l0,0v-0.1
		c0-0.1,0-0.1,0-0.2S29,18.7,29,18.7h-0.1c0,0,0,0-0.1,0l-0.1,0.1c-0.1,0.2-0.2,0.3-0.3,0.5c-0.1,0.1-0.2,0.3-0.3,0.4
		c0,0.1-0.1,0.1-0.1,0.2L27.9,20c-0.2,0-0.2-0.1-0.3-0.2c-0.1-0.2-0.2-0.3-0.2-0.5c-0.2-0.3-0.3-0.7-0.5-1s-0.4-0.5-0.5-0.8
		c0-0.1-0.1-0.3-0.2-0.3s-0.2,0-0.2,0h-0.1h-0.1h-0.1v0.1v0.1c0,0.1-0.1,0.2-0.1,0.2c-0.1,0.3-0.2,0.6-0.3,1
		c-0.1-0.1-0.3-0.2-0.4-0.3c-0.1-0.1-0.2-0.3-0.3-0.5c-0.2-0.3-0.4-0.6-0.6-0.9c-0.5-0.6-0.9-1.3-1.3-2c-0.2-0.4-0.4-0.7-0.6-1.1
		c-0.2-0.3-0.3-0.7-0.5-1c-0.1-0.2-0.2-0.3-0.3-0.5c0-0.1-0.1-0.1-0.1-0.2c-0.1-0.2-0.1-0.4-0.2-0.6c-0.1-0.2-0.1-0.4-0.3-0.5h-0.1
		h-0.1h-0.1h-0.1l0,0c-0.1,0-0.3-0.1-0.4,0c-0.1,0-0.2,0.2-0.3,0.3c-0.1,0.1-0.2,0.3-0.3,0.4c-0.2,0.3-0.3,0.6-0.5,0.8
		c-0.1,0.1-0.2,0.3-0.2,0.4c-0.1,0.1-0.1,0.3-0.1,0.4c-0.1,0.3-0.3,0.6-0.4,0.9c-0.1,0.3-0.3,0.6-0.4,0.9c-0.1,0.3-0.3,0.6-0.4,0.9
		c-0.1,0.3-0.2,0.6-0.4,0.9c-0.3,0.6-0.6,1.2-0.9,1.8c-0.3,0.5-0.6,1-0.8,1.5c-0.1,0.3-0.2,0.5-0.3,0.8c0,0.1-0.1,0.3-0.1,0.4
		c0,0.2,0,0.3,0,0.5c-0.1,0.7-0.4,1.3-0.5,2c0,0.2-0.1,0.5-0.3,0.7c-0.1,0.1-0.3,0.2-0.5,0.1s-0.4,0-0.6,0.2
		c-0.2,0.2-0.3,0.4-0.4,0.6c-0.1,0.3-0.1,0.6-0.2,0.9c-0.1,0.3-0.2,0.6-0.3,1c-0.1,0.3-0.3,0.6-0.4,0.9s-0.1,0.6-0.2,0.9
		c-0.1,0.3-0.2,0.6-0.3,0.9s-0.3,0.6-0.4,0.9c-0.2,0.6-0.4,1.2-0.7,1.8c-0.1,0.3-0.2,0.6-0.4,0.9c-0.1,0.3-0.3,0.5-0.5,0.8
		c-0.4,0.5-0.8,1-1.3,1.6c-0.4,0.5-0.8,1.1-1.3,1.6c-0.2,0.3-0.4,0.5-0.6,0.8c-0.2,0.2-0.4,0.5-0.6,0.7c-0.4,0.5-0.8,1.1-1.1,1.6
		c-0.1,0.3-0.2,0.5-0.3,0.8c-0.1,0.1-0.1,0.3-0.2,0.4c-0.1,0.1-0.2,0.2-0.2,0.3c-0.1,0.2-0.1,0.5-0.1,0.7c0.1-0.1,0.2-0.1,0.2-0.2
		c0.1-0.1,0.1-0.2,0.1-0.3c0.1-0.2,0.1-0.4,0.2-0.6c0.3-0.4,0.5-0.8,0.8-1.2C4.9,40.3,5,40,5.2,39.8c0.1-0.2,0.3-0.4,0.4-0.6
		c0.3-0.3,0.6-0.7,1-0.5c0.1,0,0.1,0,0.2,0h0.1v-0.1c0-0.1,0.1-0.2,0.1-0.4V38h0.1h0.1c0.1,0,0.1,0,0.2,0l0,0c0,0,0,0,0,0.1v0.1
		c0.1,0.3,0.2,0.5,0.3,0.8c0.1,0.2,0.2,0.5,0.3,0.7c0.1,0.2,0.1,0.5,0.1,0.7S8,40.8,7.9,41.1c-0.1,0.2-0.2,0.4-0.2,0.7
		c0,0.2,0,0.4-0.1,0.5s-0.2,0.2-0.4,0.2l0,0v0.1v0.1c0,0.1,0,0.1,0,0.2c0,0.1-0.1,0.2-0.1,0.2C7,43,7,43,7,43H6.9l0,0c0,0,0,0-0.1,0
		c-0.1-0.1-0.1-0.2-0.2-0.3c0,0.1-0.1,0.1-0.1,0.2c0,0.1,0,0.2,0,0.2c0,0.2-0.1,0.3-0.1,0.5c-0.1,0.3-0.1,0.6-0.2,1
		c0,0.1,0,0.1,0,0.2c0,0.1,0,0-0.1,0H6c-0.1,0-0.3,0-0.4,0c-0.2,0-0.3,0.3-0.4,0.4c-0.1,0.2-0.1,0.4-0.3,0.6
		c-0.1,0.1-0.3,0.2-0.4,0.4c-0.1,0.1-0.1,0.1-0.2,0.2c0,0,0,0.1-0.1,0.2c0,0.1,0,0.1,0,0.2c0,0.1-0.1,0.1-0.1,0.2
		c0,0.1-0.1,0.1-0.1,0.2c-0.1,0.1-0.2,0.3-0.3,0.4c-0.1,0.2-0.2,0.3-0.3,0.5s-0.1,0.3-0.2,0.5c-0.1,0.3-0.2,0.7-0.3,1
		c-0.1-0.1-0.3-0.3-0.4-0.4c0,0.3-0.1,0.6-0.1,0.9c-0.1,0.3-0.2,0.6-0.2,0.9c-0.1,0.3-0.2,0.6-0.3,0.9c0,0.1,0,0.3,0,0.4
		c0,0.1,0.1,0.2,0.2,0.1c0.1,0,0.2-0.2,0.2-0.3c0.1-0.1,0.1-0.2,0.2-0.4c0.1-0.2,0.3-0.4,0.5-0.6c0.2-0.2,0.4-0.3,0.6-0.4
		c0.1-0.1,0.2-0.1,0.3-0.2c0,0,0,0,0.1,0c0,0,0,0,0.1-0.1c0-0.1,0-0.2,0-0.2c0-0.2,0-0.4,0-0.5s0-0.2,0-0.3c0.1-0.2,0.3-0.1,0.4,0
		c-0.1,0.1-0.2,0.2-0.2,0.4s0,0.3,0,0.5c0.1-0.1,0.2-0.1,0.2-0.2c0.1-0.1,0.1-0.2,0.1-0.3c0.1-0.2,0.2-0.4,0.3-0.7
		c0.2,0.1,0.4,0.2,0.6,0.3C5.7,49,5.9,48.7,6,48.3c0-0.1,0.1-0.2,0.1-0.3c0,0,0-0.1,0.1-0.1c0,0,0-0.1,0.1-0.2h0.1h0.1h0.1
		c0,0,0-0.1,0-0.2c0.1-0.4,0.1-0.8,0.3-1.2C7,46.1,7.1,46,7.1,45.8c0.1-0.2,0.1-0.4,0.1-0.6c0.1-0.4,0.3-0.8,0.4-1.3
		c0.1-0.4,0.2-0.8,0.4-1.3c0.1-0.4,0.3-0.8,0.4-1.2s0.3-0.8,0.3-1.2c0-0.2,0-0.4,0.1-0.6c0.2,0,0.2-0.2,0.3-0.4
		c0.1-0.4,0.3-0.8,0.4-1.3c0.1-0.4,0.2-0.8,0.4-1.3c0.1-0.4,0.2-0.9,0.3-1.3c0.1-0.4,0.2-0.9,0.3-1.3c0.1-0.4,0.2-0.8,0.3-1.3
		c0.1-0.4,0.2-0.7,0.3-1.1c0-0.1,0-0.2,0-0.3c0-0.1,0-0.2,0-0.2c0.1-0.1,0.1-0.2,0.1-0.2c0-0.1,0.1-0.2,0.1-0.3
		c0.1-0.4,0.2-0.8,0.3-1.2c0-0.2,0-0.4,0.1-0.6c0-0.2,0.2-0.4,0.3-0.5c0.2-0.3,0.2-0.7,0.3-1c0.1-0.4,0.3-0.7,0.5-1
		c0.1-0.2,0.2-0.3,0.3-0.5c0,0,0,0,0.1,0.1c0,0,0,0,0,0.1s0,0.1,0,0.2s0,0.2-0.1,0.4c0,0.2-0.1,0.5-0.1,0.7
		c-0.1,0.4-0.2,0.9-0.4,1.3c-0.1,0.4-0.2,0.9-0.2,1.3c0,0.1,0,0.2,0,0.3c0,0.1,0,0.2-0.1,0.4c-0.1,0.2-0.1,0.4-0.2,0.6
		C12,31.6,12,32,12.3,32.4c0.1-0.6,0.2-1.2,0.3-1.7c0-0.2,0-0.3,0.1-0.4c0-0.1,0-0.3,0.1-0.4c0.1-0.3,0.2-0.5,0.3-0.8
		c0.2-0.6,0.4-1.1,0.6-1.7c0.2-0.6,0.3-1.2,0.5-1.7c0.1-0.3,0.1-0.6,0.2-0.9c0.1-0.3,0.1-0.6,0.2-0.9c0.1-0.3,0.2-0.5,0.3-0.8
		c0.1-0.2,0.2-0.5,0.3-0.8c0.1-0.5,0.3-1,0.5-1.5c0.1-0.2,0.2-0.5,0.3-0.7c0.1-0.1,0.2-0.3,0.3-0.3c0.1,0,0.1,0,0.2,0.1l0,0V20
		c0,0.1,0,0.1,0,0.2c0,0.3,0,0.6,0,0.8c0,0.3-0.1,0.6-0.2,0.9s-0.1,0.6-0.2,0.8C16,23,16,23.3,15.9,23.6c-0.1,0.3-0.1,0.6-0.2,0.8
		c-0.1,0.5-0.2,1.1-0.3,1.6s-0.3,0.9-0.6,1.2c-0.3,0.4-0.6,0.7-0.8,1.1c-0.1,0.2-0.2,0.4-0.2,0.7c-0.1,0.3-0.1,0.5-0.2,0.8
		c-0.2,0.6-0.4,1.1-0.5,1.7c-0.1,0.3-0.1,0.6-0.2,0.9c0,0.1-0.1,0.3-0.1,0.4c0,0.1-0.1,0.3-0.1,0.4c-0.2,0.6-0.3,1.2-0.5,1.8
		c-0.1,0.3-0.1,0.6-0.2,0.9c-0.1,0.3-0.1,0.5-0.2,0.8c-0.1,0.2-0.2,0.5-0.3,0.7s-0.2,0.5-0.3,0.7c0,0.1,0,0.1,0,0.2
		c0,0.1,0,0.1,0,0.2s-0.1,0.1-0.2,0.1c0-0.2,0-0.4,0-0.6c0-0.1,0-0.2,0-0.3s0.1-0.2,0.1-0.3c0.1-0.4,0.2-0.8,0.3-1.2
		s0.2-0.8,0.3-1.2c0-0.2,0.1-0.4,0.1-0.6c0-0.1,0-0.2,0-0.3s0-0.2,0-0.3s0.1-0.2,0.1-0.3s0.1-0.2,0.1-0.3c0-0.2,0-0.5-0.1-0.7
		c-0.1,0.2-0.1,0.5-0.1,0.8s-0.1,0.5-0.2,0.8c-0.2,0.5-0.3,1-0.4,1.6c-0.1,0.5-0.2,1.1-0.2,1.6c0,0.3-0.1,0.5-0.2,0.8
		c-0.1,0.3-0.2,0.5-0.2,0.8c-0.1,0.5-0.2,1.1-0.4,1.6c-0.1,0.5-0.3,1-0.5,1.5c-0.4,1-0.6,2-1,3c-0.2,0.5-0.4,1-0.6,1.5
		c-0.2,0.5-0.4,1-0.5,1.5c0,0.1,0,0.2,0,0.4c0.1,0,0.1,0,0.2-0.1c0.1,0,0.1-0.1,0.2-0.2c0-0.4,0-0.5,0.1-0.5c0-0.1,0.1-0.2,0.1-0.3
		c0.2-0.4,0.3-0.7,0.5-1.1c0.2-0.4,0.3-0.7,0.4-1.1c0.1-0.4,0.3-0.7,0.4-1.1c0.1-0.3,0.3-0.7,0.5-1s0.3-0.7,0.4-1.1
		c0.2-0.7,0.4-1.5,0.7-2.2c0.1-0.4,0.2-0.7,0.4-1.1c0.1-0.4,0.3-0.7,0.4-1.1s0.2-0.7,0.4-1.1c0.1-0.4,0.3-0.7,0.4-1.1
		c0.3-0.7,0.5-1.4,0.8-2.2c0.1-0.4,0.2-0.7,0.3-1.1c0.1-0.4,0.2-0.8,0.2-1.1c0.1-0.4,0.2-0.8,0.2-1.1c0.1-0.3,0.2-0.7,0.3-1
		c0.2-0.3,0.4-0.7,0.6-1c0.2-0.3,0.4-0.6,0.6-0.9c0.1-0.1,0.2-0.3,0.3-0.4c0,0.2,0.1,0.5,0.1,0.7v0.1h0.1l0,0l0,0v-0.1
		c0-0.2,0.1-0.3,0.1-0.5c0.1-0.3,0.1-0.6,0.2-0.9c0-0.2,0.1-0.3,0.1-0.5c0-0.1,0-0.3,0-0.4c0-0.3,0.1-0.6,0.2-0.9s0.2-0.6,0.2-0.9
		c0.1-0.6,0.2-1.2,0.2-1.8c0-0.2,0-0.3,0-0.5c0-0.1,0-0.3,0.1-0.4c0.1-0.3,0.2-0.6,0.2-0.8c0.1-0.6,0.2-1.2,0.3-1.8
		c0-0.6-0.1-1.1,0-1.7c0-0.1,0.1-0.3,0.1-0.4c0-0.1,0.1-0.3,0.2-0.4c0.1-0.3,0.2-0.5,0.3-0.8c0.1-0.3,0.2-0.5,0.3-0.8
		s0.3-0.5,0.4-0.7c0.3-0.4,0.4-1,0.9-1.2c0.1-0.1,0.2-0.1,0.3-0.1c0,0.2,0.1,0.5,0.2,0.7c0,0.1,0,0.2,0.1,0.3c0,0.1,0.1,0.2,0.1,0.3
		s0,0.2,0,0.4c0,0.1,0,0.3,0,0.4c0,0.3,0,0.5,0,0.8c0,1.1,0,2.2,0,3.3c0,0.3,0,0.5,0,0.8c0,0.2,0,0.4-0.1,0.7c0,0.1-0.1,0.2-0.1,0.3
		c0,0.1-0.1,0.2-0.2,0.3c-0.1,0.2-0.2,0.4-0.2,0.6c-0.1,0.5-0.2,1-0.4,1.5c-0.2,0.5-0.4,1-0.5,1.5c-0.1,0.4-0.1,0.9-0.3,1.3
		c0,0.1-0.1,0.2-0.2,0.3c0,0.1-0.1,0.2-0.1,0.3c0,0.2,0,0.5,0,0.7c0,0.1,0,0.2,0,0.4c0,0,0.1-0.1,0.2-0.1c0-0.1,0.1-0.1,0.1-0.2
		c0-0.2,0.1-0.4,0.1-0.6s0.1-0.4,0.1-0.6l0.1-0.5v0.1h0.1c0.1,0.6,0.1,1.2,0.1,1.8c0,0.3,0,0.6,0,0.9c0,0.2,0,0.3,0,0.5
		c0,0.1,0,0.2,0,0.2v0.1l0,0h0.1c0.1,0,0.1,0,0.1-0.1s0-0.2,0-0.2c0-0.2,0-0.4,0-0.5c0-0.6,0-1.2,0-1.8c0-0.3,0-0.5,0-0.8
		s0-0.6,0.1-0.8c0.1-0.2,0.2-0.4,0.3-0.7c0.1-0.2,0.1-0.5,0.1-0.7c0.1-0.6,0.3-1.1,0.5-1.7c0.1-0.3,0.1-0.6,0.2-0.9s0.1-0.6,0.2-0.9
		s0.2-0.6,0.2-0.9s0-0.6,0.1-0.9c0-0.3,0-0.6,0.1-0.9c0-0.3,0.1-0.6,0.2-0.9c0-0.1,0-0.1,0-0.2c0-0.1,0,0,0.1,0c0,0,0,0,0.1,0l0,0
		c0.1,0.2,0.1,0.3,0.2,0.4c0.1,0.3,0.2,0.6,0.3,0.9c0.2,0.6,0.3,1.1,0.4,1.7s0,1.2,0,1.8c0,0.6-0.1,1.2-0.1,1.9
		c-0.1,0.6-0.2,1.2-0.3,1.8c0,0.3-0.1,0.6-0.1,0.9s-0.1,0.6-0.2,0.9s-0.2,0.6-0.2,0.9s-0.1,0.6-0.1,0.9s-0.1,0.6-0.1,1
		c0,0.3-0.1,0.6-0.2,0.9S21.1,29.8,21,30s-0.2,0.4-0.3,0.7c-0.1,0.3-0.1,0.5-0.1,0.8s-0.1,0.6-0.2,0.9s-0.2,0.6-0.3,0.9
		c0-0.4-0.1-0.9-0.1-1.3v-0.1h-0.1h-0.1V32c0,0.1,0,0.2,0,0.3s0,0.2,0,0.3s0,0.1,0,0.2v0.1l0,0l0,0c0,0,0,0-0.1,0c0,0,0,0-0.1,0
		c0,0,0-0.1,0-0.2c0-0.1,0-0.2,0-0.3c0-0.2,0-0.4,0-0.7c0-0.4,0-0.9,0-1.3c0-0.5,0-1,0-1.5h-0.1h-0.1v0.2c0,0.2,0,0.3,0,0.5
		c0,0.3,0,0.6,0,0.9c0,0.6,0,1.2-0.1,1.8c0,0,0,0,0,0.1l0,0h-0.1c0,0,0-0.1,0-0.2c0-0.1-0.1-0.3-0.1-0.4c-0.1,0.1-0.2,0.3-0.3,0.2
		c-0.1-0.1-0.2-0.3-0.2-0.4l-0.1,0.1v0.1c0,0.2,0,0.3-0.1,0.4c0,0.3-0.1,0.6-0.1,0.9c0,0.3-0.1,0.6-0.1,0.9c0,0.2-0.1,0.4-0.2,0.5
		c-0.2,0.1-0.3,0-0.5-0.1c0,0.1-0.1,0.2-0.1,0.3c0,0,0,0.1-0.1,0.1c0,0.1-0.1,0-0.1,0c0-0.3,0-0.5,0-0.8s0.1-0.5,0.1-0.8
		s0.1-0.5,0.2-0.7c0-0.1,0.1-0.2,0.1-0.3s0.1-0.2,0.1-0.3c0.1-0.4,0.1-0.8,0.2-1.2c0-0.1,0.1-0.2,0.2-0.2c0.1-0.1,0-0.2,0.1-0.3
		c0.1-0.3,0.1-0.5,0.2-0.8s0.2-0.6,0.2-0.9c0.1-0.3,0.1-0.6,0.1-0.9c-0.1,0-0.1,0.1-0.2,0.1c-0.1,0.1-0.1,0.2-0.1,0.3
		c-0.1,0.2-0.1,0.4-0.2,0.6c-0.1,0.4-0.2,0.8-0.4,1.2c-0.1,0.4-0.3,0.8-0.4,1.2c-0.1,0.2-0.1,0.4-0.1,0.6c0,0.1,0,0.2,0,0.3
		c0,0.1-0.1,0.2-0.1,0.3c-0.2,0.4-0.4,0.8-0.4,1.2c-0.1,0.4-0.1,0.9-0.1,1.3c-0.1,0.4-0.2,0.8-0.4,1.2C16,36,16,36.2,15.9,36.4
		s-0.1,0.4-0.2,0.5c-0.1,0.1-0.2,0.2-0.2,0.3c-0.1,0.1-0.1,0.2-0.1,0.3v0.2l0,0h-0.1h-0.1c-0.1,0-0.1-0.1-0.1-0.2
		c-0.3,0.3-0.4,0.7-0.5,1.1c-0.1,0.4-0.2,0.9-0.3,1.3c-0.1-0.1-0.3-0.1-0.4-0.2c0,0.3,0,0.6-0.1,0.8c0,0.1,0,0.3,0,0.4v0.2l-0.1,0.1
		c-0.1-0.2-0.2-0.3-0.4-0.4l0,0c-0.1,0-0.1,0-0.2,0c-0.1,0-0.1,0.1-0.1,0.1c-0.1,0.2-0.1,0.3-0.2,0.5c0,0.2-0.1,0.3-0.1,0.5
		c0,0.1,0,0.3-0.1,0.4c0,0.1-0.1,0.3-0.2,0.4c-0.1,0.1-0.1,0.1-0.2,0.2c-0.1,0.2-0.2,0.4-0.3,0.6c-0.1,0.1-0.1,0.2-0.2,0.2
		c-0.1,0-0.2,0-0.2,0.1c-0.1,0.1-0.1,0.3-0.2,0.4c-0.1,0.2-0.2,0.3-0.3,0.5c-0.1,0.1-0.2,0.3-0.2,0.4c0,0.1-0.1,0.3-0.1,0.4
		c-0.1,0.2-0.3,0.4-0.5,0.6c-0.2,0.2-0.3,0.4-0.4,0.6c0,0.1-0.1,0.3-0.1,0.4c0,0.2,0,0.3,0,0.5S9.6,47.9,9.6,48c0,0.1,0,0.2,0,0.3
		c0,0.2,0.2,0.1,0.3,0.1c0.3-0.1,0.6-0.3,0.9-0.3c0.2,0,0.3,0,0.5-0.1h0.1h0.1v-0.1v-0.1c0-0.3,0-0.6,0.2-0.9
		c0.1-0.1,0.2-0.2,0.3-0.4c0.1-0.1,0.2-0.2,0.3-0.3s0.2-0.1,0.4-0.1c0.1,0,0.1,0,0.2,0C13,46.1,13,46,13,46c0.1-0.2,0.3-0.4,0.4-0.6
		C13.7,45,14,44.6,14,44c0-0.2,0-0.3,0-0.4c0.1,0,0.2,0,0.4,0.1h0.1v0.1c0,0.1,0,0.1,0,0.2c0,0.2,0,0.4,0,0.6c0,0.1-0.1,0.2-0.1,0.3
		c-0.1,0.1-0.2,0.1-0.2,0.2c-0.1,0.2-0.2,0.4-0.2,0.6c-0.1,0.2-0.2,0.5-0.3,0.7s-0.2,0.4-0.4,0.6c-0.1,0.1-0.1,0.2-0.2,0.2
		c-0.1,0.1-0.2,0.1-0.2,0.2c-0.1,0.2-0.1,0.3-0.2,0.5c-0.1,0.1-0.2,0.2-0.3,0.4s-0.2,0.3-0.2,0.5c0,0.1,0,0.2-0.1,0.2
		s-0.1,0.1-0.2,0.1c-0.1,0.1-0.2,0.3-0.3,0.4c-0.1,0.4-0.2,0.7-0.4,1.1c-0.1,0.2-0.2,0.3-0.4,0.4c-0.1,0.1-0.3,0.1-0.5,0.2
		c-0.3,0.2-0.5,0.6-0.7,0.9c-0.3,0.4-0.4,0.9-0.7,1.2c-0.1,0.1-0.2,0.2-0.3,0.2C8.7,53.8,8.9,54,9,53.9s0.1-0.2,0.2-0.2
		c0.1-0.1,0.1-0.2,0.2-0.4c0.3-0.5,0.6-1,0.9-1.5l0.1,0.1l0,0h0.1c0.1-0.1,0.3-0.1,0.4-0.2c0.1,0,0.1-0.1,0.2-0.1c0,0,0,0,0.1-0.1
		v-0.1c0-0.1,0-0.3,0-0.4c0.5,0.1,0.5-0.5,0.6-0.8c0,0.1,0.1,0.3,0.2,0.3c0.1,0,0.1,0,0.2,0c0.1,0,0.1-0.1,0.1-0.1
		c0.1-0.3,0.2-0.6,0.4-0.9c0.2,0.1,0.4,0.2,0.6,0.3c0.1-0.2,0.2-0.5,0.2-0.7c0-0.1,0.1-0.2,0.1-0.4c0-0.1,0.1-0.2,0.2-0.3
		c0.1,0.2,0.1,0.5,0.2,0.7c0.1-0.1,0.2-0.1,0.2-0.2c0.1-0.1,0.1-0.2,0.2-0.3c0.1-0.2,0.3-0.5,0.4-0.7c0.2-0.5,0.5-1,0.7-1.4
		c0.1-0.2,0.2-0.5,0.4-0.7c0.1-0.2,0.3-0.4,0.4-0.6c0.1-0.2,0.2-0.4,0.3-0.7c0.1-0.2,0.2-0.4,0.3-0.6c0.5-0.9,1-1.8,1.5-2.8
		s1-1.9,1.5-2.9c0.1-0.2,0.2-0.3,0.4-0.3c0.1,0,0.3,0,0.4,0.1s0.1,0.3,0.3,0.3h0.1c0,0,0,0,0.1,0l0,0v-0.1c0.2-0.4,0.3-0.9,0.5-1.3
		c0.2-0.5,0.3-1,0.4-1.6s0.3-1,0.4-1.6c0.1-0.3,0.1-0.5,0.2-0.8c0.1-0.2,0.1-0.5,0.3-0.7c0.3-0.5,0.5-0.9,0.8-1.4
		c0.1-0.2,0.3-0.4,0.3-0.6c0.1-0.2,0.1-0.4,0.3-0.5c0.3-0.3,0.4-0.7,0.6-1.1s0.4-0.7,0.6-1.1c0.1-0.2,0.1-0.4,0.2-0.7
		c0-0.2,0.2-0.4,0.3-0.6c0.2-0.4,0.3-0.9,0.4-1.4c0-0.1,0-0.2,0.1-0.3c0.1-0.1,0.1-0.1,0.2-0.2c0,0.2,0.1,0.4,0.1,0.6s0,0.5,0,0.7
		c0,0.5,0,1-0.1,1.6c0,0.1,0,0.2,0,0.3c0,0.1-0.1,0.2-0.1,0.4c0,0.2-0.1,0.5-0.1,0.7c0,0.1,0,0.2,0,0.4c0,0.1,0,0.2,0.1,0.2
		c0.1,0.1,0.2-0.3,0.3-0.4c0.1-0.2,0.1-0.4,0.2-0.7c0-0.2,0-0.4,0-0.7c0-0.4,0-0.9,0.2-1.2l0.1-0.1c0-0.1,0-0.1,0-0.2s0-0.3,0-0.4
		c0-0.3,0-0.5,0.1-0.8c0-0.5,0.1-1,0.1-1.6c0-0.1,0-0.2,0-0.4c0-0.1,0-0.3,0-0.4s0.1-0.2,0.1-0.3c0-0.1,0.1-0.2,0.1-0.3
		c0.1-0.4,0.1-0.8,0.1-1.2c0-0.2,0.1-0.4,0.2-0.6s0.2-0.3,0.3-0.4c0.1-0.1,0.2-0.2,0.4-0.2H29c0.1,0,0,0,0.1,0.1c0,0.1,0,0.2,0,0.3
		c0,0.4,0,0.8,0.2,1.1c0,0.1,0,0.1,0,0.2s0,0.2-0.1,0.3c-0.1,0.2-0.1,0.5-0.1,0.7c-0.1,0.5,0,1,0,1.5c0,0.2,0,0.4,0,0.7
		c0,0.1,0,0.2,0,0.3c0,0.1-0.1,0.2-0.1,0.2c-0.2,0.4-0.1,0.8-0.2,1.2c0,0.2,0,0.5-0.1,0.7s-0.1,0.5-0.2,0.7
		c-0.3,0.9-0.7,1.8-1.1,2.7c-0.1,0.2-0.2,0.4-0.3,0.7c0.2,0.1,0.3,0.1,0.5,0c0.1-0.1,0.2-0.2,0.3-0.3c0.1-0.2,0.1-0.4,0.2-0.5
		c0.1-0.2,0.2-0.3,0.3-0.5c0.1-0.2,0.2-0.4,0.2-0.5s0-0.2,0.1-0.3c0-0.1,0.1-0.2,0.1-0.3c0.1-0.2,0.2-0.4,0.3-0.6
		c0.1-0.2,0.1-0.5,0.2-0.7c0.1-0.5,0.3-1,0.4-1.4c0.2-0.5,0.3-1,0.4-1.5s0.1-1,0.2-1.5s0.2-1,0.4-1.4c0.1-0.5,0.2-1,0.3-1.4
		c0-0.2,0.1-0.5,0.2-0.7s0.2-0.5,0.2-0.8c0.1-0.2,0.1-0.5,0.2-0.8c0.1-0.2,0.1-0.5,0.2-0.7c0.1-0.5,0.3-0.9,0.5-1.3
		c0.1-0.1,0.1-0.2,0.2-0.3c0-0.1,0.1-0.1,0.1-0.2v-0.1c0,0,0,0,0-0.1l0,0c0,0,0.1,0.1,0.2,0.1c0.1,0,0.1,0.1,0.1,0.2
		c0.1,0.2,0.1,0.4,0.1,0.6c0,0.2,0,0.5,0,0.8c0,0.2,0,0.5,0,0.7c0,0.1,0,0.2,0,0.3c0,0.1-0.1,0.2-0.1,0.3c-0.2,0.4-0.2,0.9-0.3,1.3
		c0,0.2,0,0.5-0.1,0.7c0,0.2-0.1,0.5-0.1,0.7c-0.1,0.5-0.1,1-0.1,1.5c0,0.2,0,0.5,0,0.7s0,0.5,0,0.7c0,0.1-0.1,0.2-0.1,0.2
		c-0.1,0.1-0.1,0.2-0.1,0.3c0,0.2,0,0.4,0,0.6s0,0.4,0,0.6c0-0.1,0.1-0.1,0.2-0.2c0.1-0.1,0.1-0.1,0.1-0.2c0-0.2,0.1-0.4,0.1-0.6
		c0.1-0.4,0.1-0.8,0.3-1.1c0.2-0.8,0.5-1.5,0.8-2.2s0.6-1.5,0.9-2.2c0.1-0.4,0.3-0.7,0.4-1.1c0.1-0.4,0.2-0.7,0.3-1.1
		s0.3-0.7,0.4-1.1c0.1-0.4,0.2-0.8,0.3-1.1c0.2-0.8,0.4-1.5,0.6-2.3c0.1-0.4,0.2-0.8,0.2-1.1c0.1-0.4,0.2-0.7,0.3-1.1
		c0.1-0.2,0.1-0.4,0.2-0.6c0-0.1,0.1-0.2,0.1-0.2c0-0.1,0.1-0.1,0.2-0.2l0.1-0.1c0.1,0,0.1,0.1,0.1,0.1c0.1,0.2,0.1,0.4,0.2,0.6
		S38,9.7,38,9.9c0,0.2,0,0.4,0,0.6c0,0.4,0,0.8,0,1.2s0,0.8,0,1.2s0,0.8,0,1.2c0,0.2,0,0.4,0.1,0.6h0.1v-0.1c0-0.1,0-0.2,0.1-0.3
		c0-0.2,0.1-0.4,0.1-0.6c0.1-0.4,0.2-0.8,0.3-1.2c0.1,0.2,0.3,0.5,0.4,0.7c0.1,0.3,0.1,0.6,0.2,0.9c0.1,0.6,0.1,1.2,0.2,1.8
		c0,0.3,0.1,0.7,0.2,1c0.1-0.9,0.2-1.9,0.3-2.8c0-0.1,0-0.2,0-0.4v-0.1h0.1h0.1c0,0,0,0,0.1,0c0.1,0.2,0.2,0.3,0.4,0.5
		c0.2,0.3,0.3,0.7,0.4,1.1c0.1,0.4,0.1,0.9,0.2,1.3c0.1,0.4,0.3,0.8,0.4,1.2c0,0.2,0.1,0.4,0.1,0.7c0,0.2,0.1,0.5,0.1,0.7
		c0.1,0.4,0.1,0.9,0.2,1.4c0.1,0.4,0.2,0.9,0.2,1.3s0,0.9,0.1,1.3c0,0.2,0.1,0.4,0.1,0.6c0.1,0.2,0.1,0.4,0.1,0.6
		c0,0.4,0,0.9,0.1,1.3c0,0.2,0.1,0.4,0.1,0.6s0,0.4,0.1,0.7c0,0.4,0,0.9,0.2,1.3c0.1,0.4,0.2,0.8,0.3,1.2c0,0.2,0.1,0.4,0.1,0.6
		c0,0.1,0,0.2,0,0.3c0,0.1,0,0.1,0.1,0.2s0.1,0.2,0.2,0.3c0.1,0.1,0.2,0.1,0.3,0.2c0.3,0.2,0.3,0.6,0.4,0.8c0,0.1,0.1,0.1,0.1,0.2
		c0.1,0.1,0.1,0.2,0.1,0.3c0.1,0.2,0.1,0.4,0.2,0.6c0.1,0.4,0.2,0.8,0.3,1.3v0.1c0,0,0,0.1,0.1,0.2c0,0,0.1,0,0.2,0.1
		c0-0.2,0-0.4,0.1-0.6l0,0l0,0l0,0l0,0l0,0l0,0c0,0,0,0,0.1,0l0,0l0,0l0,0l0,0l0,0l0,0c0.1,0,0.1,0,0.2,0l0,0
		c0.1,0.1,0.2,0.2,0.3,0.4l0,0l0,0l0,0l0,0c0,0,0,0.1,0.1,0.1l0.1,0.1l0,0l0,0l0,0l0,0c0,0.1,0.1,0.1,0.1,0.2l0,0
		c0.1,0.1,0.1,0.3,0.2,0.4c0,0.1,0.1,0.1,0.2,0.2l0,0l0,0l0,0l0,0l0,0l0,0l0,0c0.1-0.8-0.3-1.3-0.7-1.7c-0.5-0.4-0.7-1.1-0.9-1.6
		l0,0l0,0l0,0l0,0l0,0l0,0c-0.1-0.2-0.2-0.4-0.3-0.6c-0.3-0.5-0.7-1-1-1.6l0,0l0,0c0,0,0,0.1,0,0l0,0c0,0,0-0.1-0.1-0.1
		c-0.1-0.3-0.2-0.8-0.3-1.2c0-0.1,0-0.1-0.1-0.3l0,0l0,0c-0.2-0.8-0.2-1.6-0.2-2.4l0,0c0-0.1,0-0.2,0-0.3l0,0c0,0,0,0,0,0.1
		c0,0,0,0,0-0.1l0,0l0,0l0,0c0-0.1,0-0.2,0-0.3l0,0c0.1-0.7,0.2-1.3,0.4-1.9c0.1-0.2,0.1-0.4,0.1-0.7l0,0c0-0.1,0-0.2,0-0.3
		c0.1,0.1,0.2,0.1,0.2,0.2l0,0l0,0l0,0c0,0.1,0.1,0.1,0.1,0.2l0,0l0,0l0,0c0,0.1,0.1,0.1,0.1,0.2l0,0c0,0,0,0,0,0.1s0.1,0.1,0.1,0.2
		l0,0l0,0l0,0v0.1l0,0c0,0.1,0.1,0.2,0.1,0.3l0,0l0,0v0.1l0,0l0,0l0,0c0,0.1,0,0.2,0,0.3c0,0.1,0,0.2,0,0.3c0.1,0.4,0.2,0.7,0.3,1.1
		c0.1,0.3,0.1,0.6,0.2,0.9c0,0.1,0,0.2,0.1,0.3c0.1,0.4,0.2,0.7,0.3,1.1c0.1,0.5,0.3,1,0.5,1.5c0.1,0.3,0.2,0.5,0.4,0.7l0,0
		c0,0.1,0.1,0.1,0.1,0.2l0,0c0,0,0-0.1,0,0l0,0c0,0.1,0,0.1,0.1,0.2l0,0c0.1,0.2,0.2,0.4,0.2,0.6l0,0l0,0c0.1,0.4,0.3,0.7,0.5,0.9
		l0,0l0,0c0.1,0.2,0.3,0.3,0.4,0.4c0.1,0.1,0.2,0.2,0.3,0.3l0,0l0,0l0.1,0.1l0,0l0,0c0.1,0.2,0.3,0.4,0.3,0.6l0,0v0.1l0,0
		c0,0,0-0.1,0,0l0,0c0,0.1,0.1,0.2,0.2,0.3l0,0c0.1,0.1,0.1,0.3,0.2,0.4c0-0.1-0.1-0.1-0.1-0.2c0.3,0.6,0.5,1.1,0.7,1.7
		c0.1,0.2,0.1,0.4,0.1,0.5l0,0v0.1l0,0c0,0.3,0.1,0.6,0.2,0.8c0,0.1,0,0.2,0.1,0.2v0.1c0,0.1,0,0.1,0.1,0.2v0.1c0,0.1,0,0.1,0.1,0.2
		c0,0.1,0.1,0.3,0.1,0.4c0,0.1,0.1,0.2,0.1,0.3c-0.1-0.1-0.2-0.1-0.3-0.2c0,0,0,0-0.1-0.1c-0.2,0.3-0.2,0.4-0.5,0
		c-0.2-0.2-0.5-0.2-0.8-0.5c0.1,0.4,0.2,0.9,0.3,1.3c0.1,0.2,0.1,0.3,0.2,0.5l0,0c0.1,0.2,0.2,0.4,0.3,0.6c0.1,0.2,0.1,0.4-0.1,0.6
		l0,0c-0.2,0.1-0.2,0.4-0.2,0.6c-0.4,0-0.7-0.1-0.8-0.5l0,0l0,0c-0.1-0.2-0.2-0.4-0.2-0.7l0,0l0,0l0,0l0,0c-0.1-0.7-0.3-1.4-0.9-1.7
		c-0.2-0.1-0.4-0.4-0.4-0.7c-0.1-0.5-0.3-1-0.5-1.4c0-0.1-0.1-0.1-0.1-0.2c0,0,0,0.1,0.1,0.1c0,0,0-0.1-0.1-0.1l0,0l0,0l0,0
		c0-0.1-0.1-0.1-0.2-0.2l0,0l0,0l0,0l0,0v-0.1c0,0,0-0.1,0-0.2l0,0l0,0c0,0,0,0,0-0.1s0,0,0,0c0-0.1-0.1-0.2-0.2-0.3
		c0,0,0,0.1,0,0.2c0,0.1,0,0.2,0,0.3c0,0.4,0,0.7,0.2,1.1c0.1,0.2,0.1,0.3,0.2,0.5c0,0.2,0.1,0.3,0.1,0.5c0,0.4,0.1,0.7,0.2,1.1
		c0.1,0.4,0.2,0.8,0.4,1.1c0.2,0.4,0.3,0.7,0.5,1c0.2,0.4,0.3,0.7,0.3,1.1c0,0.1,0,0.2,0.1,0.3c0,0,0,0,0,0.1l0,0h0.1
		c0.1,0,0.2,0.1,0.3,0.2c0.1,0.1,0.2,0.2,0.2,0.4s0,0.3,0.1,0.5c0.1,0.3,0.2,0.5,0.4,0.8c0,0.1,0.1,0.1,0.1,0.2
		c0,0.1,0.1,0.2,0.1,0.2c0,0.1,0.1,0.1,0.2,0c0,0,0.1-0.1,0.1-0.2c0,0,0.1-0.1,0.2-0.1c0.1,0,0.2-0.1,0.3,0c0.2,0.3,0.3,0.6,0.5,0.9
		c0.1,0.3,0.2,0.7,0.2,1c0,0.2,0.1,0.4,0.1,0.6c0.1,0.2,0.1,0.4,0.2,0.6c0.1,0.2,0.1,0.4,0.2,0.6v0.1l0.1,0.1
		c0.1,0.1,0.2,0.1,0.3,0.2c0.1,0.1,0.3,0.2,0.4,0.3c0.1,0,0.2,0.1,0.3,0c0.2-0.1,0.2-0.4,0.2-0.6c0-0.4,0-0.8,0-1.2
		c0-0.2,0-0.4,0-0.6c0.2,0.1,0.4,0.2,0.6,0.3h0.1c0,0,0,0,0,0.1s0,0.1,0,0.2c0,0.1,0,0.1,0,0.2v0.1l0,0c0,0,0,0,0.1,0s0.2,0,0.4,0.1
		c0,0,0,0,0.1,0.1v0.1c0,0.1,0,0.1,0,0.2c0.1,0.3,0.1,0.5,0.2,0.8c0,0.1,0.1,0.2,0.2,0.4c0.1,0.1,0.2,0.2,0.2,0.3
		c0.1-0.1,0.1-0.2,0.2-0.3c0.1,0,0.2-0.1,0.3,0c0.1,0,0.2,0.2,0.2,0.2c0.1,0.1,0.2,0.3,0.2,0.4c0.1,0.1,0.2,0.3,0.2,0.4
		c0,0.1,0.1,0.1,0.1,0.2c0,0,0,0.1,0.1,0.1h0.1c0.3,0,0.6-0.1,0.9,0.1c0.1,0.1,0.2,0.2,0.3,0.3c0,0.1,0.1,0.1,0.1,0.2l0.1,0.1H57
		c0,0,0-0.1,0-0.2c0-0.1-0.1-0.1-0.1-0.1c-0.1-0.1-0.1-0.1-0.2-0.2c-0.2-0.2-0.5-0.5-0.7-0.7c-0.1-0.1-0.1-0.1-0.2-0.2
		c0,0-0.1-0.1-0.1-0.2c-0.1-0.1-0.1-0.3-0.1-0.4c-0.1-0.3-0.1-0.6-0.2-0.9c0-0.2-0.1-0.3-0.1-0.5v-0.1c0,0,0,0-0.1,0
		c0,0-0.1-0.1-0.2-0.1c-0.2-0.2-0.4-0.2-0.6-0.4c-0.2-0.2-0.2-0.4-0.2-0.7s0-0.6-0.1-0.8c-0.1-0.1-0.2-0.2-0.2-0.4
		c-0.1-0.1-0.1-0.3-0.2-0.4c-0.1-0.3-0.2-0.5-0.3-0.8s-0.3-0.6-0.4-0.8c-0.1-0.1-0.1-0.3-0.2-0.4c-0.1-0.1-0.1-0.3-0.2-0.4
		c-0.1-0.1-0.1-0.2-0.2-0.4c-0.1-0.1-0.1-0.2-0.1-0.4s0-0.5-0.2-0.6c0-0.1-0.1-0.1-0.2-0.2c0,0,0,0-0.1,0v-0.1c0-0.1,0-0.1-0.1-0.2
		c0-0.1-0.1-0.2-0.1-0.4c-0.1,0.2-0.2,0.3-0.4,0.5c-0.1-0.1-0.3-0.2-0.3-0.4c-0.1-0.3-0.1-0.5-0.1-0.8s-0.1-0.5-0.1-0.8
		c0-0.1,0-0.2-0.1-0.4c0-0.1-0.1-0.2-0.1-0.3c-0.1,0.2-0.2,0.5-0.3,0.7c-0.3-0.8-0.6-1.6-0.8-2.4c-0.1-0.4-0.3-0.8-0.4-1.2
		c-0.2-0.4-0.3-0.8-0.5-1.2c-0.1-0.3-0.2-0.7-0.5-1c-0.2-0.3-0.5-0.6-0.8-0.9c-0.2-0.2-0.4-0.5-0.4-0.8c0-0.2-0.1-0.4-0.1-0.5
		c-0.1-0.2-0.2-0.3-0.2-0.5c-0.2-0.4-0.2-0.8-0.3-1.2c0-0.2-0.1-0.4-0.1-0.6S46,27.9,46,27.7s-0.1-0.3,0-0.5
		c0.1-0.1,0.2-0.2,0.4-0.1c0.1,0,0.1,0.1,0.2,0.2c0.1,0.1,0.1,0.2,0.2,0.3c0.1,0.2,0.2,0.4,0.2,0.5c0.2,0.3,0.4,0.7,0.5,1
		c0.1,0.2,0.1,0.4,0.2,0.6c0.1,0.2,0.2,0.4,0.2,0.6c0.2,0.3,0.4,0.6,0.6,0.9c0.1,0.1,0.3,0.5,0.5,0.3c0.1-0.1,0.2-0.2,0.3-0.3
		c0.1,0,0.2,0,0.2,0.1c0.1,0.1,0.1,0.2,0.1,0.3c0.1,0.1,0.1,0.2,0.2,0.4c0.2,0.4,0.4,0.8,0.6,1.1c0.2,0.4,0.4,0.8,0.6,1.1
		c0.1,0.2,0.2,0.4,0.2,0.5c0.1,0.2,0.1,0.4,0.2,0.6c0.2,0.4,0.4,0.7,0.5,1.1c0.3,0.8,0.5,1.6,0.8,2.4c0.1,0.4,0.3,0.8,0.4,1.2
		c0.1,0.2,0.1,0.4,0.2,0.6c0,0.2,0.1,0.4,0.2,0.5c0.1,0.1,0.1,0.3,0.2,0.4c0.1,0.1,0.1,0.3,0.2,0.4c0.1,0.1,0.1,0.3,0.2,0.4l0.1,0.1
		c0,0.1,0,0.1,0,0.2c0,0.3,0,0.6,0.3,0.8c0.2,0.2,0.5,0.1,0.8,0.1c0.2,0,0.3,0,0.5,0s0.4,0.1,0.5,0.3c0.2,0.2,0.5,0.3,0.7,0.5
		c0.1,0.1,0.2,0.2,0.3,0.4s0.1,0.3,0.2,0.5c0.2,0.3,0.4,0.7,0.5,1s0.3,0.6,0.5,0.9c0.1,0.1,0.2,0.2,0.3,0.4c0.1,0.1,0.2,0.3,0.3,0.4
		c0.1,0.1,0.2,0.2,0.3,0.4c0.1,0.1,0.2,0.2,0.2,0.3c0.1,0.2,0.3,0.4,0.6,0.4c0.1,0,0.1,0,0.2,0c0.1,0,0.1,0,0.2,0
		c0.1,0.1,0.1,0.2,0.2,0.2c0.1,0.1,0.1,0.2,0.2,0.3c0.2,0.3,0.5,0.6,0.8,0.9c0.1,0.1,0.1,0.1,0.2,0.2c0.1,0,0.1,0.1,0.2,0.1
		c0.1-0.1,0.2-0.2,0.3-0.3c0,0.2,0,0.3,0.1,0.4c0,0.1,0,0.1,0,0.2v0.1h0.1c0.3,0,0.6,0.1,0.9,0C63.5,50.9,63.5,50.8,63.4,50.8z
		 M50.4,18.7h0.2c0.2,0.3,0.3,0.5,0.4,0.8c0.3,0.6,0.6,1.2,0.9,1.8c0.1,0.3,0.2,0.6,0.3,0.9c0,0.1,0.1,0.2,0.1,0.3
		c0-0.1,0.1-0.2,0.1-0.3s0-0.2,0.1-0.3h0.1c0.1,0.3,0.2,0.7,0.3,1c0.1,0.5,0.3,1.1,0.4,1.6c0,0.1,0,0.1,0,0.2c0,0.5,0.2,0.9,0.4,1.4
		s0.4,1.1,0.5,1.6c0.1,0.2,0.1,0.3,0.3,0.2c0-0.7-0.2-1.3-0.4-2c-0.1-0.3-0.2-0.7-0.3-1.1c0,0,0.1-0.1,0.1-0.2
		c0.2,0.2,0.5,0.2,0.6,0.5c0.2,0.6,0.6,1.1,0.8,1.7c0.2,0.5,0.3,1,0.5,1.5c0.1,0.4,0.3,0.8,0.5,1.2c0.1,0.3,0.3,0.6,0.4,0.9
		c0.1,0.3,0.2,0.6,0.4,0.8c0.1,0.1,0.2,0.1,0.4,0.2s0.5,0.2,0.6,0.4c0.2,0.2,0.2,0.6,0.3,0.9c0.2,0.5,0.3,1.1,0.5,1.6
		c0.1,0.3,0.2,0.7,0.2,1c0.1,0.5,0.2,1.1,0.3,1.6c0.1,0.4,0.1,0.8-0.4,1c0-0.5-0.1-0.9-0.1-1.5c-0.2,0.1-0.2,0.2-0.3,0.3
		c-0.1-0.2-0.1-0.4-0.2-0.6c-0.3-0.3-0.6-0.5-0.9-0.8c0.1-0.4-0.2-0.6-0.5-0.6s-0.4-0.5-0.5-0.8c-0.3-0.5-0.5-1.1-0.5-1.8
		c0-0.2,0-0.3-0.1-0.6c-0.3,0.4-0.5,0.1-0.6-0.2c0-0.1-0.1-0.1-0.1-0.2c-0.2-0.2-0.3-0.3-0.6-0.5c0,0-0.1,0.1-0.2,0.1l-0.1-0.1
		c0-0.2-0.1-0.3-0.1-0.5c0-0.6-0.2-1.2-0.4-1.7s-0.3-1.1-0.5-1.6c0,0-0.1,0.1-0.2,0.1c0,0-0.1,0-0.1-0.1c0-0.4-0.2-0.6-0.5-0.6
		c-0.1,0-0.2-0.1-0.2-0.1c-0.1-0.3-0.2-0.7-0.3-1s-0.2-0.5-0.3-0.8c-0.3-0.8-0.6-1.6-1.1-2.2c-0.1-0.2-0.2-0.5-0.2-0.8
		c-0.1-0.6-0.2-1.3-0.3-1.9c0-0.3,0-0.6,0-0.9C50.3,18.9,50.4,18.8,50.4,18.7z M14.8,42.8c0,0.1,0,0.1,0,0.2c0,0.2,0,0.4,0,0.6
		c0,0-0.1,0-0.2,0v-0.1c0,0,0-0.1,0-0.2c0-0.2,0-0.4,0-0.6C14.6,42.8,14.7,42.8,14.8,42.8L14.8,42.8z M15.6,42c0,0.1,0,0.2,0,0.3
		c0,0.2,0,0.4,0,0.7c-0.1-0.2-0.2-0.4-0.2-0.6c0-0.1,0-0.2,0-0.3V42v-0.1C15.4,41.9,15.4,41.9,15.6,42C15.6,41.9,15.6,41.9,15.6,42
		L15.6,42z M26.1,23.3c0,0.4-0.4,0.8-0.6,1.1c-0.1-0.2-0.2-0.3-0.3-0.5c0-0.1-0.1-0.1-0.1-0.2s0-0.2,0-0.3c0.1-0.5,0.3-0.9,0.4-1.4
		c0.1-0.2,0.1-0.5,0.2-0.7c0-0.1,0.1-0.2,0.1-0.3c0-0.1,0-0.1,0-0.2c0,0,0-0.1,0-0.2s0.1-0.1,0.2,0s0.1,0.2,0.1,0.3
		c0,0.2,0,0.5,0,0.8C26.2,22.2,26.2,22.8,26.1,23.3z M41.9,18.6C42,18.6,42,18.6,41.9,18.6c0.2-0.4,0.5-0.8,0.5-1.2
		c0.1-0.6,0.5-0.8,0.6-1.3c0.1-0.4,0.6-0.9,0.9-0.8c0,0.4,0,0.9,0,1.3c0,0.3-0.1,0.5-0.2,0.7c-0.2,0.4-0.5,0.7-0.6,1.1
		c-0.2,0.7-0.8,0.6-0.9,1.2c0-0.1,0-0.2-0.1-0.3C42,19.1,42,18.8,41.9,18.6z M42.7,25.5L42.7,25.5L42.7,25.5z M43.8,20.8
		c-0.1-0.1-0.2-0.2-0.3-0.2s-0.2,0-0.3,0.1c-0.2,0.2-0.3,0.5-0.5,0.7c-0.1-0.3-0.2-0.5-0.3-0.8l0.1-0.1c0.2-0.7,0.8-1.2,1.1-1.8
		c0.1-0.2,0.2-0.3,0.2-0.5c0.4-0.9,0.9-1.6,1.4-2.4c0.3-0.4,0.6-0.9,0.8-1.4c0-0.1,0.1-0.1,0.2-0.2c0,0.1,0.1,0.2,0.1,0.3
		s-0.1,0.3-0.1,0.4c0,0.1-0.1,0.2-0.1,0.3c-0.1,0.4-0.3,0.8-0.4,1.3c-0.1,0.2-0.1,0.5-0.1,0.7c0,0.4-0.2,0.7-0.3,1s-0.4,0.5-0.4,0.9
		c0,0.1-0.1,0.2-0.2,0.3c-0.2,0.5-0.4,0.9-0.7,1.4c0,0,0,0.1-0.1,0.2C43.9,21,43.8,20.9,43.8,20.8z M47.5,40.8L47.5,40.8L47.5,40.8
		L47.5,40.8z"/>
	<path fill="#E1DFD8" d="M42.7,25.9L42.7,25.9L42.7,25.9z"/>
	<path fill="#E1DFD8" d="M48.9,40.6L48.9,40.6L48.9,40.6L48.9,40.6z"/>
	<path fill="#E1DFD8" d="M44,23.9L44,23.9L44,23.9L44,23.9z"/>
	<path fill="#E1DFD8" d="M45.9,35.2L45.9,35.2L45.9,35.2L45.9,35.2z"/>
	<path fill="#E1DFD8" d="M45.8,34.8L45.8,34.8C45.8,34.9,45.8,34.9,45.8,34.8z"/>
	<path fill="#E1DFD8" d="M45.9,35.2L45.9,35.2L45.9,35.2z"/>
</g>
</svg>
